<?xml version="1.0" encoding="UTF-8"?><svg id="Layer_3" xmlns="http://www.w3.org/2000/svg" viewBox="0 0 79.8 64.37"><defs><style>.cls-1{fill:#1d1d1b;}</style></defs><path class="cls-1" d="m26.53,24.1v-9.68h-3.07v-1.23h7.36v1.23h-3.07v9.68h-1.23Z"/><path class="cls-1" d="m32.67,24.1v-10.91h6.38v1.23h-5.16v3.14h4.54v1.23h-4.54v4.09h5.16v1.23h-6.38Z"/><path class="cls-1" d="m46.95,24.1l-2.61-4.47-2.63,4.47h-1.44l3.42-5.56-3.12-5.35h1.41l2.48,4.25,2.5-4.25h1.42l-3.29,5.33,3.25,5.58h-1.41Z"/><path class="cls-1" d="m52.3,24.1v-9.68h-3.07v-1.23h7.36v1.23h-3.07v9.68h-1.23Z"/><path class="cls-1" d="m76.7,52.55H3.42V5.59h73.28v46.96Zm-72.78-.5h72.28V6.09H3.92v45.96Z"/><path class="cls-1" d="m71.64,49.62H8.48c-1.18,0-2.14-.96-2.14-2.14V10.63c0-1.18.96-2.14,2.14-2.14h63.15c1.18,0,2.14.96,2.14,2.14v36.85c0,1.18-.96,2.14-2.14,2.14ZM8.48,8.99c-.9,0-1.64.74-1.64,1.64v36.85c0,.9.74,1.64,1.64,1.64h63.15c.9,0,1.64-.74,1.64-1.64V10.63c0-.9-.74-1.64-1.64-1.64H8.48Z"/><polygon class="cls-1" points="74.33 57.63 5.69 57.63 3.43 52.37 3.91 52.23 6.07 57.13 74.02 57.13 76.22 52.19 76.67 52.41 74.33 57.63"/><rect class="cls-1" x="5.1" y="55.52" width="69.68" height=".5"/></svg>