<?xml version="1.0" encoding="UTF-8"?><svg id="Layer_3" xmlns="http://www.w3.org/2000/svg" viewBox="0 0 81.15 64.79"><defs><style>.cls-1{fill:#1d1d1b;}</style></defs><path class="cls-1" d="m77.35,53.74H4.07V6.78h73.28v46.96Zm-72.78-.5h72.28V7.28H4.57v45.96Z"/><path class="cls-1" d="m72.29,50.81H9.14c-1.18,0-2.14-.96-2.14-2.14V11.82c0-1.18.96-2.14,2.14-2.14h63.15c1.18,0,2.14.96,2.14,2.14v36.85c0,1.18-.96,2.14-2.14,2.14ZM9.14,10.18c-.9,0-1.64.74-1.64,1.64v36.85c0,.9.74,1.64,1.64,1.64h63.15c.9,0,1.64-.74,1.64-1.64V11.82c0-.9-.74-1.64-1.64-1.64H9.14Z"/><polygon class="cls-1" points="74.98 58.82 6.34 58.82 4.08 53.56 4.57 53.43 6.72 58.32 74.67 58.32 76.88 53.38 77.33 53.61 74.98 58.82"/><rect class="cls-1" x="5.75" y="56.72" width="69.68" height=".5"/><path class="cls-1" d="m17.18,25.28h-1.23v-10.91h3.69c1.02,0,1.79.24,2.3.72.51.48.76,1.2.76,2.16v.85c0,.87-.2,1.55-.6,2.04-.4.49-1,.78-1.81.87l2.52,4.27h-1.4l-2.49-4.23h-1.74v4.23Zm0-5.43h2.46c.66,0,1.13-.13,1.42-.4.28-.27.42-.72.42-1.36v-.85c0-.6-.14-1.02-.42-1.27s-.75-.38-1.42-.38h-2.46v4.25Z"/><path class="cls-1" d="m24.54,25.28v-10.91h6.38v1.23h-5.16v3.14h4.54v1.23h-4.54v4.09h5.16v1.23h-6.38Z"/><path class="cls-1" d="m35.59,25.28v-9.68h-3.07v-1.23h7.36v1.23h-3.07v9.68h-1.23Z"/><path class="cls-1" d="m44.79,25.41c-1.02,0-1.79-.32-2.3-.97-.51-.65-.77-1.63-.77-2.94v-7.13h1.23v7.13c0,.97.14,1.66.42,2.07s.75.61,1.42.61,1.13-.21,1.42-.61.42-1.1.42-2.07v-7.13h1.23v7.13c0,1.31-.26,2.29-.77,2.94-.51.65-1.28.97-2.3.97Z"/><path class="cls-1" d="m51.54,25.28h-1.23v-10.91h3.69c1.02,0,1.79.24,2.3.72.51.48.76,1.2.76,2.16v.85c0,.87-.2,1.55-.6,2.04-.4.49-1,.78-1.81.87l2.52,4.27h-1.4l-2.49-4.23h-1.74v4.23Zm0-5.43h2.46c.66,0,1.13-.13,1.42-.4.28-.27.42-.72.42-1.36v-.85c0-.6-.14-1.02-.42-1.27s-.75-.38-1.42-.38h-2.46v4.25Z"/><path class="cls-1" d="m63.29,25.28l-3.28-9.19v9.19h-1.1v-10.91h1.68l3.35,9.4v-9.4h1.1v10.91h-1.75Z"/></svg>