<?xml version="1.0" encoding="UTF-8"?><svg id="Layer_3" xmlns="http://www.w3.org/2000/svg" viewBox="0 0 145.53 84.21"><defs><style>.cls-1{fill:#1d1d1b;}</style></defs><g><path class="cls-1" d="m25.43,17.63c0-.17.08-.25.23-.25.34.03.62.08.84.15.14.13.09.23-.12.3-.02.03-.03.1-.03.23v.78c0,.13.06.2.19.2h1.27c.17.06.32-.03.45-.28.05-.05.09-.1.12-.16.13-.2.23-.28.3-.25.25.14.48.33.7.55.12.16.17.26.16.29-.03.03-.12.05-.28.05h-1c-.12,0-.2.08-.23.23-.2,1.16-.67,2.21-1.41,3.16-.1.12-.08.23.09.34.88.49,1.8.79,2.78.91.02.03.03.06.03.08-.27.11-.49.29-.66.55-.07.19-.11.29-.14.3-.99-.16-1.88-.56-2.66-1.21-.14-.12-.27-.13-.4-.03-1.05.78-2.12,1.19-3.23,1.23-.02-.03-.02-.05-.02-.08.52-.18,1-.4,1.45-.66.47-.28.91-.6,1.32-.98.12-.12.14-.26.03-.41-.58-.97-.92-2.05-1.02-3.23-.01-.14-.08-.2-.2-.2h-1.12l-.25.04c-.17.03-.27-.03-.32-.18l-.02-.09s.09-.02.25,0c.1,0,.21.02.32.04h2.4c.13,0,.2-.06.2-.19v-1.22Zm1.67,1.8c.02-.13-.03-.2-.16-.2h-2.43c-.12,0-.18.08-.16.23.09.5.19.89.3,1.17.2.56.53,1.08.99,1.54.12.12.25.1.37-.05.53-.78.9-1.67,1.09-2.7Z"/><path class="cls-1" d="m42.96,17.64c0-.16.08-.23.23-.23.18.02.37.04.55.08.2.07.31.12.31.16.03.05-.02.1-.13.16-.09.03-.12.12-.09.26v.27c0,.13.06.2.19.2h1.42c.12,0,.21-.01.25-.03.08-.08.17-.15.25-.2.06-.06.12-.07.2-.04.39.22.67.44.83.64.03.14-.04.19-.2.16-.07-.03-.18.01-.35.12-.31.16-.61.31-.92.45-.14.06-.14.16,0,.29.06.05.11.1.15.16.02.15-.07.19-.26.13-.07,0-.18.04-.31.12l-.83.38c-.12.06-.18.1-.17.13,0,.04-.05.08-.12.12-.08.04-.12.12-.12.25v.51c0,.13.06.2.19.2h1.26c.16.03.27,0,.33-.12.07-.1.15-.21.23-.31.16-.18.25-.27.29-.27.21.1.45.29.73.58.12.16.17.25.16.28-.03.03-.12.05-.29.05h-2.7c-.13,0-.2.06-.2.19v1.7c.03.35-.12.62-.45.79-.21.1-.42.15-.65.12-.02-.02-.05-.11-.09-.28-.09-.19-.23-.32-.4-.38-.16-.07-.24-.12-.24-.16,0-.05.1-.07.3-.06.3.02.5,0,.62-.05.06-.06.08-.15.05-.29v-1.38c0-.13-.06-.2-.19-.2h-2.37l-.25.04c-.17.03-.27-.01-.3-.11-.04-.13.04-.19.23-.17l.29.03h2.39c.13,0,.2-.06.2-.19v-.9c0-.17.08-.25.24-.24.11,0,.22.02.33.04.12.02.27-.04.42-.19.13-.12.25-.25.36-.38.1-.12.09-.19-.04-.19h-2.5l-.25.04c-.16.03-.26-.03-.3-.2l-.02-.09s.1-.02.26,0l.3.05h2.44c.12.04.24,0,.34-.11.19-.1.33-.13.41-.08.09.06.2.02.33-.13.12-.15.23-.29.32-.44.08-.13.06-.2-.07-.2h-4.3l-.15.02c-.14.02-.21.08-.21.19.02.44-.1.79-.37,1.06-.29.19-.53.14-.72-.17-.05-.23.03-.43.26-.6.31-.23.51-.51.6-.84.07-.18.12-.2.16-.06.03.12.1.19.21.2l.2.02h1.55c.13,0,.2-.06.2-.19v-.7Z"/><path class="cls-1" d="m63.47,17.37c.09-.06.2-.03.31.09.25.18.44.34.57.48.04.04.04.1,0,.16-.03.02-.12.02-.27,0-1.19.18-2.29.26-3.3.25-.13,0-.2.06-.2.19v.2c0,.13.06.2.19.2h2.34c.12,0,.23-.05.33-.14.11-.18.26-.21.46-.07.33.16.54.3.64.43.03.07-.03.14-.16.2-.08.05-.11.15-.09.28,0,.27,0,.54-.02.81-.08.17-.3.24-.65.22-.12-.03-.19-.11-.19-.24-.01-.1-.08-.16-.2-.16h-2.47c-.12,0-.19.08-.2.23,0,1.18-.17,2.24-.48,3.18-.11.31-.28.62-.51.94-.12.19-.23.27-.31.25-.02-.02,0-.11.05-.28.11-.36.19-.72.24-1.07.02-.13-.02-.19-.09-.18-.24-.03-.36-.2-.37-.52,0-.16-.02-.3-.09-.44-.07-.1-.11-.07-.11.09v1.99c.03.41-.16.57-.55.5-.22-.05-.31-.21-.27-.46v-1.62c0-.11-.03-.09-.09.06-.22.66-.51,1.21-.88,1.66-.03,0-.05,0-.06-.03.16-.81.24-1.49.25-2.05,0-.17.09-.25.26-.23.1,0,.22.02.34.05.12.02.19-.03.19-.16v-.42c0-.13-.08-.16-.24-.09-.19.06-.3.14-.34.24-.04.05-.07.09-.1.1-.04.02-.11-.07-.21-.27-.06-.15-.11-.3-.15-.45-.05-.16-.06-.25-.04-.28l.61-.03c.12,0,.23-.08.31-.23.34-.73.55-1.39.64-1.95.03-.2.13-.28.3-.23.14.04.28.09.42.15.19.11.28.18.27.21-.02.05-.07.08-.16.09-.33.69-.71,1.28-1.14,1.77-.1.11-.06.16.12.13l.57-.09c.15-.04.21-.11.18-.21-.01-.06-.03-.12-.06-.18-.08-.16-.12-.25-.11-.27.02-.02.11,0,.28.05.1.06.21.14.31.23.13.16.2.16.21,0l.02-.36v-2.09c0-.18.1-.23.3-.15.16.07.31.14.47.23.06.04.11.05.16.05,1.09-.18,2.02-.43,2.78-.77Zm-5.61.18c.02-.18.1-.25.26-.2.18.05.37.12.57.21.1.04.15.09.13.16-.02.03-.05.05-.1.06-.05.02-.13.1-.24.27-.12.18-.29.37-.49.55-.15.12-.15.27,0,.44.12.19.18.34.16.47-.06.43-.27.59-.62.48-.19-.16-.26-.36-.2-.62.02-.16-.01-.35-.08-.57-.12-.2-.17-.31-.16-.33.02-.03.12-.01.29.05.16.11.26.09.32-.07.08-.25.13-.55.16-.88Zm1.26,3.58s-.03-.04-.11,0c-.08.05-.12.14-.12.27v.41c0,.12.08.22.23.27.17.08.29.16.38.24.12.12.18.11.19-.04l.02-.53c0-.12-.01-.17-.05-.15-.33.11-.51-.05-.55-.48Zm4.31-1.76c0-.15-.07-.22-.2-.22h-2.45c-.13,0-.2.06-.2.19v.53c0,.13.06.2.19.2h2.46c.13,0,.2-.06.2-.19v-.51Zm.2,1.67c.1-.13.23-.17.38-.12.24.12.43.25.55.39.08.12.01.22-.2.3-.02.03-.03.11-.03.23v2.45c-.02.36-.22.59-.59.68-.16.01-.25-.07-.26-.23,0-.05-.03-.12-.1-.22-.05-.05-.08-.04-.09,0,0,.08-.05.15-.16.2-.1.06-.23.06-.39,0-.14-.08-.19-.22-.15-.41v-1.38c0-.13-.04-.2-.12-.2-.09,0-.13.06-.13.19v1.36c.07.3-.06.46-.41.48-.27-.03-.38-.18-.31-.45v-1.38c0-.13-.04-.2-.12-.2-.09,0-.14.06-.14.19v1.52c.06.22-.02.39-.23.48-.38.13-.55.02-.52-.33v-3.44c0-.16.1-.21.31-.16.1.03.21.07.31.12.1.06.21.09.34.09h1.72c.13,0,.25-.06.34-.18Zm-2.09.38c-.12.02-.18.06-.18.12v.79c0,.13.04.2.12.2.09,0,.14-.06.14-.19v-.73c0-.13-.03-.2-.09-.2Zm1.05.2c0-.13-.04-.2-.12-.2-.09,0-.13.06-.13.19v.73c0,.13.04.2.12.2.09,0,.13-.06.13-.19v-.73Zm.96-.15s-.07-.05-.13-.05c-.08,0-.12.06-.12.19v.73c0,.13.04.2.12.2.09,0,.14-.06.14-.19,0-.29,0-.58-.02-.88Zm.02,1.47c0-.14-.04-.2-.12-.2-.09,0-.14.06-.14.19v1.06c0,.12.02.19.06.2.18-.02.25-.12.2-.33v-.91Z"/><path class="cls-1" d="m76.42,17.9c.14-.16.29-.19.44-.1.27.19.46.4.56.62-.06.06-.17.08-.33.06h-.66c-.12,0-.2.08-.23.23-.09.53-.24,1.06-.45,1.61-.05.12,0,.19.16.2.16.04.29,0,.39-.12.15-.15.24-.23.26-.23.23.06.45.16.66.3.23.14.25.26.05.38-.07.03-.1.11-.1.23v2.48c.06.3-.07.47-.4.52-.28.05-.41-.06-.4-.34,0-.13-.07-.2-.22-.2-.16,0-.23.06-.23.19v.51c-.04.12-.12.21-.23.25-.39.09-.58-.06-.57-.46v-2.41c0-.12-.07-.12-.2.02-.15.17-.26.26-.34.29-.02,0-.04-.01-.06-.03,0-.03.05-.12.14-.27.46-.83.72-1.81.78-2.95,0-.13-.07-.19-.23-.19l-.22.03c-.17.03-.27-.01-.3-.12-.03-.12.05-.18.23-.16l.29.03c.3,0,.59,0,.89-.02.06-.03.14-.11.23-.26l.09-.1Zm-.05,3.05c0-.15-.07-.22-.22-.22-.16,0-.23.06-.23.19v2.23c0,.13.07.2.22.2.16,0,.23-.06.23-.19v-2.2Zm1.52,1.91c.02-.17.03-.27.05-.28.04,0,.1.07.18.23.17.52.16.94-.02,1.25-.11.17-.26.26-.45.27-.07.03-.16,0-.27-.1-.21-.25-.13-.52.23-.8.17-.21.26-.4.28-.57Zm2.57-5.09c.1-.15.23-.3.4-.46.29.08.58.34.87.76-.04.09-.15.12-.31.09h-1.05c-.13,0-.2.06-.2.19v.59c0,.12,0,.19.03.2.03-.01.1-.1.23-.26.16-.19.25-.29.28-.28.25.11.48.34.7.68-.01.03-.03.04-.05.05-.33.02-.67.02-1,.02-.13,0-.2.06-.2.19v.62c0,.12,0,.19.03.2.03-.01.1-.1.23-.26.16-.19.26-.29.29-.28.38.24.6.47.69.7-.02.04-.12.05-.28.05h-.77c-.13,0-.2.06-.2.19v.6c0,.13.06.2.19.2h.34c.12,0,.2,0,.23-.02.19-.26.34-.35.43-.28.28.12.49.26.65.41.05.06.03.12-.05.19-.05.04-.07.12-.07.24.02.54-.03,1.05-.15,1.55-.05.22-.14.43-.27.62-.25.35-.52.56-.82.62-.17.03-.27-.03-.3-.18-.04-.17-.19-.32-.43-.47-.16-.04-.22-.1-.18-.2.03-.03.12-.03.28,0l.22.03c.23.02.43-.1.58-.35.16-.43.23-1.01.2-1.73-.01-.16-.08-.23-.2-.23h-2.12c-.15.02-.22.06-.23.13-.03.23-.15.35-.37.36-.35.04-.5-.11-.43-.45v-3.88c0-.16,0-.24.03-.24.09,0,.19.03.28.07.31.15.53.21.66.2h1.5c.13,0,.24-.06.34-.18Zm-2.02,4.7s.02-.05.04-.06c.03,0,.12.06.27.18.19.17.33.38.4.62.06.2.05.35-.02.47-.14.23-.3.32-.5.24-.24-.12-.31-.28-.22-.48.13-.32.15-.65.03-.97Zm.86-4.12c0-.13-.06-.2-.19-.2h-.47c-.13,0-.2.06-.2.19v.6c0,.13.06.2.19.2h.47c.13,0,.2-.06.2-.19v-.6Zm0,1.2c0-.14-.06-.21-.17-.21h-.48c-.13,0-.2.06-.2.19v.63c0,.13.06.2.19.2h.47c.13,0,.2-.06.2-.19v-.62Zm0,1.21c0-.14-.06-.2-.18-.2h-.48c-.13,0-.2.06-.2.19v.59c0,.12.08.2.23.21h.42c.13,0,.2-.06.2-.19v-.59Zm-.16,1.5s.12,0,.27.06c.52.25.72.6.6,1.02-.06.15-.18.23-.34.23-.2.01-.31-.1-.34-.34.03-.29,0-.52-.06-.7-.1-.17-.15-.27-.12-.28Zm.77-.06c-.12-.13-.1-.19.09-.19.37.03.63.19.8.47.08.38-.05.57-.38.57-.1,0-.19-.07-.25-.23-.03-.22-.12-.43-.25-.62Z"/><path class="cls-1" d="m94.2,23.86c.16-.15.32-.17.47-.05.23.18.38.33.45.43,0,.11-.06.16-.19.12-.06,0-.15.02-.25.06-.72.32-1.51.49-2.36.51-.16,0-.25,0-.27-.02-.01-.03,0-.06.02-.08.79-.13,1.5-.46,2.14-.98Zm1.13-6.3c0-.17.08-.25.24-.24.18.01.37.03.57.06.13.01.22.06.26.16,0,.03-.02.08-.09.13-.08.05-.12.15-.12.3,0,.18.06.27.19.27h1.5c.12,0,.22-.02.29-.05.18-.21.36-.25.52-.1.3.19.51.38.62.56,0,.1-.07.14-.2.11-.31.1-.62.21-.94.33-.1.02-.2.07-.3.16-.06.03-.11.1-.12.21-.01.11.04.16.16.16s.19,0,.22-.02l.19-.27c.14-.19.23-.29.27-.3.11.04.27.19.47.45.1.11.15.21.13.28-.02.05-.11.07-.27.07h-1.02c-.12,0-.2.08-.22.23l-.06.55c0,.09-.05.18-.17.25-.05.02,0,.07.19.16.25.12.4.24.43.36,0,.04-.05.09-.12.14-.08.06-.12.15-.12.28v1.42c.02.16,0,.27-.05.35-.15.12-.34.18-.58.16-.09-.02-.15-.06-.2-.13-.02-.04-.09-.05-.22-.05h-2.51c-.12,0-.2.04-.23.11-.06.14-.2.21-.41.23-.35.04-.49-.1-.41-.42v-2.42c0-.16.08-.22.25-.17.18.05.35.11.53.2.06.03.16.05.28.05h2.4c.12,0,.22-.03.28-.09.07-.08.07-.13.02-.15-.12-.02-.18-.09-.18-.21,0-.06-.07-.09-.18-.09h-2.24c-.12,0-.21.02-.24.06-.18.14-.41.14-.69,0-.03-.02-.05-.06-.07-.13l.09-.49c.02-.13-.03-.2-.16-.2-.16,0-.33,0-.49.04-.16.01-.25-.03-.27-.12-.03-.11.05-.17.23-.16.21.03.4.04.57.04.12,0,.2-.08.23-.23l.08-.55c.05-.17.16-.23.33-.16.29.15.49.22.62.2h2.1c.12,0,.24-.05.34-.15.12-.1.26-.13.4-.09.07.03.14.07.22.12.16.12.29.1.39-.05l.04-.07c.05-.12.02-.19-.11-.19h-4.52l-.14.02c-.13.02-.21.1-.23.27-.07.34-.19.55-.36.62-.19.07-.34.07-.47-.02-.23-.17-.25-.39-.05-.68.05-.05.12-.1.23-.15.16-.07.3-.2.44-.39.11-.21.19-.25.23-.09.02.13.1.2.25.21h.12s1.67,0,1.67,0c.13,0,.2-.06.2-.19v-.49Zm1.62,4.04c0-.18-.07-.27-.2-.27h-2.49c-.13,0-.2.08-.2.25,0,.18.06.27.19.27h2.5c.13,0,.2-.08.2-.24Zm0,.64c0-.13-.06-.2-.19-.2h-2.5c-.13,0-.2.06-.2.19v.19c0,.13.06.2.19.2h2.5c.13,0,.2-.06.2-.19v-.19Zm0,.85c0-.18-.06-.27-.19-.27h-2.5c-.13,0-.2.08-.2.25,0,.18.06.27.19.27h2.5c.13,0,.2-.08.2-.25Zm-1.8-3.05c.03-.14-.02-.21-.13-.21h-.49c-.12,0-.21.08-.24.23l-.02.12c-.01.12.05.19.17.19h.46c.12,0,.2-.08.23-.23l.02-.1Zm.14-.77c.03-.13-.02-.2-.15-.2h-.51c-.12,0-.2.08-.23.23l-.02.12c-.01.12.05.19.17.19h.48c.12,0,.2-.08.23-.23.02-.04.02-.07.02-.11Zm1.57.77c.02-.14-.03-.21-.14-.21h-.52c-.12,0-.21.08-.24.23l-.02.12c-.02.12.03.19.16.19h.52c.12,0,.2-.08.23-.23l.02-.1Zm.12-.77c.03-.13-.02-.2-.15-.2h-.5c-.13,0-.21.08-.23.24l-.02.11c-.02.12.03.19.16.19h.5c.12,0,.2-.08.23-.23l.02-.11Zm-.74,4.55s.09-.07.25-.07c.72.01,1.35.1,1.91.28.44.15.6.41.48.77-.15.24-.35.25-.6.04-.44-.39-1.01-.68-1.72-.9-.21-.06-.32-.1-.32-.12Z"/><path class="cls-1" d="m109.93,22.46c-.01-.21.04-.2.16.05.07.19.12.39.13.59.03.29-.02.55-.13.78-.09.18-.24.24-.44.19-.22-.11-.26-.28-.12-.49.31-.34.44-.72.4-1.12Zm2.23-5.09c.07-.15.19-.12.35.08.14.13.24.28.32.45-.02.12-.12.16-.3.12h-.65c-.13,0-.2.06-.2.19v.59c0,.12.01.19.03.2.02,0,.1-.09.23-.24.11-.15.19-.23.22-.24.11.02.26.16.44.43.08.09.09.17.05.23-.04.02-.13.03-.29.03h-.48c-.13,0-.2.06-.2.19v.56c0,.12.01.18.03.17l.09-.12c.15-.2.23-.3.27-.3.03,0,.11.07.25.19.11.15.22.17.34.05.77-.78,1.26-1.57,1.47-2.37.06-.16.16-.22.32-.18.29.09.52.19.69.3.07.08.05.14-.05.18-.05.02-.02.1.07.23.48.57,1.03.93,1.64,1.08.2.03.32.06.34.09,0,.04-.08.09-.23.17-.18.13-.3.25-.35.37-.06.17-.11.25-.16.25-.36-.17-.67-.45-.95-.82-.17-.22-.34-.57-.52-1.05-.04-.13-.11-.11-.22.06-.63.93-1.28,1.55-1.95,1.88-.12.06-.19.11-.19.15,0,.04-.02.07-.04.09-.22.02-.44.02-.66.02-.13,0-.2.06-.2.19v.63c0,.13.03.2.1.2s.15-.05.23-.14c.11-.19.26-.2.46-.03.1.05.21.11.31.2.11.07.12.15.05.23-.05.03-.08.1-.08.23.01.77-.09,1.47-.31,2.1-.25.53-.57.84-.98.93-.16.02-.25-.05-.28-.21-.04-.15-.21-.31-.49-.5.04-.11.15-.12.32-.05.22.08.45-.02.68-.3.12-.21.2-.47.24-.76.02-.14,0-.18-.06-.15-.2.04-.32-.07-.35-.34-.02-.15-.06-.28-.12-.39-.12-.16-.17-.25-.16-.27.23.07.42.16.55.27.12.11.18.1.18-.05v-.35c0-.15-.06-.22-.17-.22h-1.05c-.16.01-.24.03-.24.05-.01.14-.09.24-.24.3-.36.09-.52-.04-.48-.41v-3.77c0-.16.01-.24.03-.24.17.04.36.1.59.2.09.05.2.07.32.07h.9c.13,0,.24-.06.33-.19.05-.08.11-.17.19-.26Zm-1.8,5.02c-.08-.2-.05-.24.08-.12.37.46.5.9.4,1.32-.06.18-.17.27-.33.27-.24-.08-.28-.29-.12-.62.07-.35.06-.63-.03-.85Zm.61-4.17c0-.13-.07-.2-.21-.2s-.22.06-.22.19v.6c0,.13.07.2.21.2s.22-.06.22-.19v-.6Zm0,1.2c0-.14-.07-.21-.2-.21-.15,0-.23.06-.23.19v.6c0,.13.07.2.21.2s.22-.06.22-.19v-.59Zm0,1.18c0-.14-.07-.2-.2-.2-.15,0-.23.06-.23.19v.63c0,.13.07.2.21.2s.22-.06.22-.19v-.62Zm-.2,1.52s.13.04.33.2c.3.31.42.62.37.94-.1.23-.25.29-.45.17-.09-.08-.1-.25-.03-.49.02-.17,0-.33-.07-.5-.11-.19-.16-.3-.15-.32Zm4.38.61c.05-.17.15-.24.31-.22.12.02.25.05.38.09.2.07.32.12.34.16.04.06,0,.11-.1.15-.04,0-.1.07-.19.2-.07.13-.05.22.08.26.52.2.83.52.91.97.01.26-.11.43-.37.5-.26-.01-.41-.16-.44-.44-.02-.2-.1-.43-.26-.7-.1-.12-.2-.11-.3.05-.39.57-.82.96-1.3,1.16-.02-.01.02-.1.13-.26l.17-.25c.06-.1.05-.16-.02-.16-.2-.04-.31-.19-.32-.45,0-.04-.02-.08-.04-.13-.07-.14-.16-.14-.27.02-.48.62-.98,1.01-1.49,1.18-.01-.03.05-.12.2-.27.54-.54.85-1.14.95-1.8.02-.16.11-.24.27-.23.14,0,.27.02.41.05.19.07.29.12.3.16,0,.03-.03.06-.06.09-.07.05-.13.11-.17.18-.06.12-.01.22.16.29.14.05.26.17.38.35.03.07.08.03.15-.14.08-.26.15-.52.2-.78Zm-1.12-2.12c.14-.12.27-.11.41.02.27.14.36.27.27.41-.04.05-.05.13-.05.26,0,.31,0,.63-.02.96-.1.14-.26.18-.48.12-.06,0-.1-.05-.14-.13-.02-.04-.08-.06-.19-.06s-.18.03-.19.08c0,.09-.06.15-.17.18-.35.11-.51.01-.46-.3v-1.32c0-.16.02-.24.05-.24.11.01.25.05.42.12.27.07.45.04.55-.09Zm.91-.98c.14-.17.21-.25.23-.26.2.1.37.29.51.59-.02.11-.12.15-.3.11h-1.27l-.3.04c-.16.01-.25-.04-.27-.14-.02-.1.05-.15.21-.14.22.05.55.05,1.01.02.06-.06.11-.14.17-.22Zm-.93,1.52c0-.14-.05-.21-.16-.21-.12.02-.19.09-.19.21v.63c0,.13.06.2.17.2.12,0,.18-.06.18-.19v-.64Zm.81-.38c0-.16.08-.22.23-.18.07.02.15.04.22.08.28.11.47.1.58-.05.12-.12.27-.1.46.07.18.15.25.26.23.34-.05.06-.07.16-.07.28,0,.31,0,.63-.02.96-.1.14-.26.18-.48.12-.06,0-.1-.05-.14-.13-.02-.04-.08-.06-.19-.06s-.18.03-.2.08c-.01.06-.06.11-.15.15-.36.12-.52.01-.48-.32v-1.33Zm1,.38c0-.14-.05-.21-.16-.21-.12.02-.19.09-.19.21v.63c0,.13.06.2.17.2.12,0,.18-.06.18-.19v-.64Z"/></g><g><path class="cls-1" d="m10.34,74.56v-3.64h-1.25v-.72h3.43v.72h-1.25v3.64h-.93Z"/><path class="cls-1" d="m13.11,74.56v-4.36h.93v1.67h.16c.09-.2.22-.35.39-.47.17-.11.37-.17.59-.17.29,0,.52.09.7.28.17.19.26.43.26.75v2.3h-.93v-2.06c0-.18-.04-.31-.11-.41-.07-.09-.18-.14-.31-.14-.12,0-.25.04-.38.13s-.26.21-.38.37v2.1h-.93Z"/><path class="cls-1" d="m20.01,73.8c-.13.3-.3.51-.53.63-.22.12-.57.18-1.03.18s-.81-.1-1.1-.31c-.29-.21-.43-.52-.43-.94v-.87c0-.4.14-.71.41-.93.27-.22.64-.33,1.11-.33s.84.11,1.11.33c.27.22.4.54.4.95v.6h-2.11v.31c0,.19.05.33.15.43.1.1.26.15.48.15.19,0,.34-.03.46-.08.12-.06.22-.16.3-.32l.78.21Zm-2.16-1.39v.19h1.18v-.14c0-.23-.04-.39-.13-.49s-.24-.15-.46-.15-.37.05-.46.14c-.09.09-.13.24-.13.45Z"/><path class="cls-1" d="m32.85,74.61c-.52,0-.92-.13-1.2-.4-.28-.26-.42-.64-.42-1.13v-1.4c0-.5.14-.88.41-1.15.28-.27.67-.4,1.19-.4s.89.12,1.14.35c.26.23.4.57.42,1.02l-.93.05c-.02-.26-.08-.44-.17-.55-.09-.1-.25-.16-.46-.16-.25,0-.43.07-.53.2s-.16.37-.16.71v1.24c0,.33.05.56.16.69s.28.2.54.2.42-.07.52-.2c.1-.13.15-.37.14-.71h-.69v-.72h1.62v.8c0,.5-.14.88-.41,1.15-.27.27-.66.4-1.17.4Z"/><path class="cls-1" d="m38.2,73.8c-.13.3-.3.51-.53.63-.22.12-.57.18-1.03.18s-.81-.1-1.1-.31c-.29-.21-.43-.52-.43-.94v-.87c0-.4.14-.71.41-.93.27-.22.64-.33,1.11-.33s.84.11,1.11.33c.27.22.4.54.4.95v.6h-2.11v.31c0,.19.05.33.15.43.1.1.26.15.48.15.19,0,.34-.03.46-.08.12-.06.22-.16.3-.32l.78.21Zm-2.16-1.39v.19h1.18v-.14c0-.23-.04-.39-.13-.49s-.24-.15-.46-.15-.37.05-.46.14c-.09.09-.13.24-.13.45Z"/><path class="cls-1" d="m38.93,74.56v-3.27h.93v.58h.16c.08-.2.22-.36.4-.47s.39-.17.63-.17c.29,0,.51.09.67.27.16.18.24.43.24.75v2.3h-.93v-2.14c0-.15-.04-.27-.11-.35-.07-.08-.18-.12-.31-.12-.12,0-.25.04-.39.11-.14.07-.26.18-.37.32v2.18h-.93Z"/><path class="cls-1" d="m45.84,73.8c-.13.3-.3.51-.53.63-.22.12-.57.18-1.03.18s-.81-.1-1.1-.31c-.29-.21-.43-.52-.43-.94v-.87c0-.4.14-.71.41-.93.27-.22.64-.33,1.11-.33s.84.11,1.11.33c.27.22.4.54.4.95v.6h-2.11v.31c0,.19.05.33.15.43.1.1.26.15.48.15.19,0,.34-.03.46-.08.12-.06.22-.16.3-.32l.78.21Zm-2.16-1.39v.19h1.18v-.14c0-.23-.04-.39-.13-.49s-.24-.15-.46-.15-.37.05-.46.14c-.09.09-.13.24-.13.45Z"/><path class="cls-1" d="m48.67,74.61c-.43,0-.75-.1-.99-.3-.23-.2-.35-.49-.35-.86v-1.48h-.81v-.68h.81v-1.09h.93v1.09h1.26v.68h-1.26v1.36c0,.21.05.36.14.45s.23.14.39.14c.1,0,.21,0,.32-.02.12-.01.23-.04.35-.09l.11.67c-.09.04-.21.07-.37.09-.16.03-.34.04-.53.04Z"/><path class="cls-1" d="m50.43,74.56v-.68h1.01v-1.91h-1.01v-.68h1.94v2.59h1.01v.68h-2.96Zm1.52-3.8c-.19,0-.34-.03-.45-.08s-.17-.16-.17-.3v-.07c0-.15.06-.25.17-.31s.27-.09.45-.09.34.03.45.09.17.16.17.31v.07c0,.14-.06.24-.17.3s-.27.08-.45.08Z"/><path class="cls-1" d="m55.78,74.61c-.51,0-.9-.11-1.17-.33-.27-.22-.4-.53-.4-.95v-.84c0-.41.14-.72.41-.94.27-.22.66-.33,1.17-.33.48,0,.83.1,1.06.31.23.21.37.5.42.88l-.89.07c-.02-.21-.07-.36-.17-.45-.09-.09-.24-.13-.45-.13-.22,0-.38.05-.47.15-.1.1-.14.26-.14.49v.75c0,.23.05.39.15.49.1.1.26.14.48.14.2,0,.35-.04.44-.11.09-.07.15-.2.16-.37l.89.07c-.03.35-.15.62-.37.81-.22.19-.59.28-1.11.28Z"/><path class="cls-1" d="m69.63,74.56v-3.64h-1.25v-.72h3.43v.72h-1.25v3.64h-.93Z"/><path class="cls-1" d="m75.48,73.8c-.13.3-.3.51-.53.63-.22.12-.57.18-1.03.18s-.81-.1-1.1-.31c-.29-.21-.43-.52-.43-.94v-.87c0-.4.14-.71.41-.93.27-.22.64-.33,1.11-.33s.84.11,1.11.33c.27.22.4.54.4.95v.6h-2.11v.31c0,.19.05.33.15.43.1.1.26.15.48.15.19,0,.34-.03.46-.08.12-.06.22-.16.3-.32l.78.21Zm-2.16-1.39v.19h1.18v-.14c0-.23-.04-.39-.13-.49s-.24-.15-.46-.15-.37.05-.46.14c-.09.09-.13.24-.13.45Z"/><path class="cls-1" d="m78.4,74.56l-.71-1.05-.65,1.05h-.93l1.17-1.66-1.1-1.61h.94l.64.95.59-.95h.93l-1.09,1.58,1.16,1.7h-.96Z"/><path class="cls-1" d="m82.13,74.61c-.43,0-.75-.1-.99-.3-.23-.2-.35-.49-.35-.86v-1.48h-.81v-.68h.81v-1.09h.93v1.09h1.26v.68h-1.26v1.36c0,.21.05.36.14.45s.23.14.39.14c.1,0,.21,0,.32-.02.12-.01.23-.04.35-.09l.11.67c-.09.04-.21.07-.37.09-.16.03-.34.04-.53.04Z"/><path class="cls-1" d="m94.36,74.56v-.72h1.09v-2.92h-1.09v-.72h3.11v.72h-1.09v2.92h1.09v.72h-3.11Z"/><path class="cls-1" d="m98.22,74.56v-3.27h.93v.58h.16c.08-.2.22-.36.4-.47s.39-.17.63-.17c.29,0,.51.09.67.27.16.18.24.43.24.75v2.3h-.93v-2.14c0-.15-.04-.27-.11-.35-.07-.08-.18-.12-.31-.12-.12,0-.25.04-.39.11-.14.07-.26.18-.37.32v2.18h-.93Z"/><path class="cls-1" d="m102.04,74.56v-3.27h.93v.58h.16c.08-.2.22-.36.4-.47s.39-.17.63-.17c.29,0,.51.09.67.27.16.18.24.43.24.75v2.3h-.93v-2.14c0-.15-.04-.27-.11-.35-.07-.08-.18-.12-.31-.12-.12,0-.25.04-.39.11-.14.07-.26.18-.37.32v2.18h-.93Z"/><path class="cls-1" d="m107.37,74.61c-.48,0-.85-.11-1.12-.33-.27-.22-.4-.52-.4-.91v-.88c0-.4.13-.71.4-.93.27-.22.64-.33,1.12-.33s.85.11,1.11.34c.27.23.4.54.4.94v.88c0,.39-.13.69-.4.9-.27.21-.64.32-1.12.32Zm0-.68c.2,0,.35-.05.45-.14s.14-.25.14-.45v-.81c0-.21-.05-.37-.14-.46s-.24-.15-.45-.15-.35.05-.45.15-.14.25-.14.46v.8c0,.21.05.37.14.47s.24.15.45.15Z"/><path class="cls-1" d="m111.8,74.56h-1.22l-1.01-3.27h.89l.74,2.55.74-2.55h.86l-1.01,3.27Z"/><path class="cls-1" d="m114.42,74.61c-.31,0-.56-.08-.75-.25s-.29-.4-.29-.7.1-.53.31-.69c.21-.16.48-.24.83-.24h.86v-.4c0-.16-.05-.27-.14-.34-.09-.07-.23-.1-.41-.1s-.32.03-.41.1c-.09.07-.16.19-.2.39l-.76-.14c.08-.37.22-.63.43-.78s.54-.23.97-.23c.46,0,.8.09,1.04.26.24.18.36.45.36.81v1.27c0,.16.05.25.14.29s.23.04.4.02v.66c-.28.06-.52.06-.71-.02s-.31-.23-.37-.47h-.15c-.11.15-.27.28-.47.4-.2.11-.43.17-.68.17Zm.22-.6c.13,0,.26-.02.38-.06.12-.04.24-.1.34-.18v-.53h-.75c-.12,0-.22.03-.29.08s-.1.16-.1.32c0,.12.03.21.1.28.07.06.17.1.32.1Z"/><path class="cls-1" d="m119.41,74.61c-.43,0-.75-.1-.99-.3-.23-.2-.35-.49-.35-.86v-1.48h-.81v-.68h.81v-1.09h.93v1.09h1.26v.68h-1.26v1.36c0,.21.05.36.14.45s.23.14.39.14c.1,0,.21,0,.32-.02.12-.01.23-.04.35-.09l.11.67c-.09.04-.21.07-.37.09-.16.03-.34.04-.53.04Z"/><path class="cls-1" d="m121.17,74.56v-.68h1.01v-1.91h-1.01v-.68h1.94v2.59h1.01v.68h-2.96Zm1.52-3.8c-.19,0-.34-.03-.45-.08s-.17-.16-.17-.3v-.07c0-.15.06-.25.17-.31s.27-.09.45-.09.34.03.45.09.17.16.17.31v.07c0,.14-.06.24-.17.3s-.27.08-.45.08Z"/><path class="cls-1" d="m126.47,74.61c-.48,0-.85-.11-1.12-.33-.27-.22-.4-.52-.4-.91v-.88c0-.4.13-.71.4-.93.27-.22.64-.33,1.12-.33s.85.11,1.11.34c.27.23.4.54.4.94v.88c0,.39-.13.69-.4.9-.27.21-.64.32-1.12.32Zm0-.68c.2,0,.35-.05.45-.14s.14-.25.14-.45v-.81c0-.21-.05-.37-.14-.46s-.24-.15-.45-.15-.35.05-.45.15-.14.25-.14.46v.8c0,.21.05.37.14.47s.24.15.45.15Z"/><path class="cls-1" d="m128.77,74.56v-3.27h.93v.58h.16c.08-.2.22-.36.4-.47s.39-.17.63-.17c.29,0,.51.09.67.27.16.18.24.43.24.75v2.3h-.93v-2.14c0-.15-.04-.27-.11-.35-.07-.08-.18-.12-.31-.12-.12,0-.25.04-.39.11-.14.07-.26.18-.37.32v2.18h-.93Z"/></g><g><path class="cls-1" d="m9.12,13.12l2.18-5.45h.54l-2.18,5.45h-.54Z"/><path class="cls-1" d="m15.09,13.12l2.18-5.45h.54l-2.18,5.45h-.54Z"/><path class="cls-1" d="m21.07,13.12l2.18-5.45h.54l-2.18,5.45h-.54Z"/><path class="cls-1" d="m27.04,13.12l2.18-5.45h.54l-2.18,5.45h-.54Z"/><path class="cls-1" d="m33.01,13.12l2.18-5.45h.54l-2.18,5.45h-.54Z"/><path class="cls-1" d="m38.99,13.12l2.18-5.45h.54l-2.18,5.45h-.54Z"/><path class="cls-1" d="m44.96,13.12l2.18-5.45h.54l-2.18,5.45h-.54Z"/><path class="cls-1" d="m50.94,13.12l2.18-5.45h.54l-2.18,5.45h-.54Z"/><path class="cls-1" d="m56.91,13.12l2.18-5.45h.54l-2.18,5.45h-.54Z"/><path class="cls-1" d="m62.88,13.12l2.18-5.45h.54l-2.18,5.45h-.54Z"/><path class="cls-1" d="m68.86,13.12l2.18-5.45h.54l-2.18,5.45h-.54Z"/><path class="cls-1" d="m74.83,13.12l2.18-5.45h.54l-2.18,5.45h-.54Z"/><path class="cls-1" d="m80.81,13.12l2.18-5.45h.54l-2.18,5.45h-.54Z"/><path class="cls-1" d="m86.78,13.12l2.18-5.45h.54l-2.18,5.45h-.54Z"/><path class="cls-1" d="m92.75,13.12l2.18-5.45h.54l-2.18,5.45h-.54Z"/><path class="cls-1" d="m98.73,13.12l2.18-5.45h.54l-2.18,5.45h-.54Z"/><path class="cls-1" d="m104.7,13.12l2.18-5.45h.54l-2.18,5.45h-.54Z"/><path class="cls-1" d="m110.67,13.12l2.18-5.45h.54l-2.18,5.45h-.54Z"/><path class="cls-1" d="m116.65,13.12l2.18-5.45h.54l-2.18,5.45h-.54Z"/><path class="cls-1" d="m122.62,13.12l2.18-5.45h.54l-2.18,5.45h-.54Z"/><path class="cls-1" d="m128.6,13.12l2.18-5.45h.54l-2.18,5.45h-.54Z"/></g><g><path class="cls-1" d="m9.12,52.68l2.18-5.45h.54l-2.18,5.45h-.54Z"/><path class="cls-1" d="m15.09,52.68l2.18-5.45h.54l-2.18,5.45h-.54Z"/><path class="cls-1" d="m21.07,52.68l2.18-5.45h.54l-2.18,5.45h-.54Z"/><path class="cls-1" d="m27.04,52.68l2.18-5.45h.54l-2.18,5.45h-.54Z"/><path class="cls-1" d="m33.01,52.68l2.18-5.45h.54l-2.18,5.45h-.54Z"/><path class="cls-1" d="m38.99,52.68l2.18-5.45h.54l-2.18,5.45h-.54Z"/><path class="cls-1" d="m44.96,52.68l2.18-5.45h.54l-2.18,5.45h-.54Z"/><path class="cls-1" d="m50.94,52.68l2.18-5.45h.54l-2.18,5.45h-.54Z"/><path class="cls-1" d="m56.91,52.68l2.18-5.45h.54l-2.18,5.45h-.54Z"/><path class="cls-1" d="m62.88,52.68l2.18-5.45h.54l-2.18,5.45h-.54Z"/><path class="cls-1" d="m68.86,52.68l2.18-5.45h.54l-2.18,5.45h-.54Z"/><path class="cls-1" d="m74.83,52.68l2.18-5.45h.54l-2.18,5.45h-.54Z"/><path class="cls-1" d="m80.81,52.68l2.18-5.45h.54l-2.18,5.45h-.54Z"/><path class="cls-1" d="m86.78,52.68l2.18-5.45h.54l-2.18,5.45h-.54Z"/><path class="cls-1" d="m92.75,52.68l2.18-5.45h.54l-2.18,5.45h-.54Z"/><path class="cls-1" d="m98.73,52.68l2.18-5.45h.54l-2.18,5.45h-.54Z"/><path class="cls-1" d="m104.7,52.68l2.18-5.45h.54l-2.18,5.45h-.54Z"/><path class="cls-1" d="m110.67,52.68l2.18-5.45h.54l-2.18,5.45h-.54Z"/><path class="cls-1" d="m116.65,52.68l2.18-5.45h.54l-2.18,5.45h-.54Z"/><path class="cls-1" d="m122.62,52.68l2.18-5.45h.54l-2.18,5.45h-.54Z"/><path class="cls-1" d="m128.6,52.68l2.18-5.45h.54l-2.18,5.45h-.54Z"/></g><g><path class="cls-1" d="m36.42,32.33v-.52l2.29-1.28-2.29-1.28v-.52l2.73,1.53v.55l-2.73,1.53Z"/><path class="cls-1" d="m40.24,32.33v-.52l2.29-1.28-2.29-1.28v-.52l2.73,1.53v.55l-2.73,1.53Z"/><path class="cls-1" d="m46.07,31.89c-.09.19-.23.34-.39.44s-.35.16-.56.16c-.34,0-.6-.11-.79-.33-.19-.22-.28-.52-.28-.92v-.89c0-.4.12-.7.37-.92.25-.22.59-.33,1.04-.33.13,0,.26.01.39.04.13.03.26.06.38.11v-1.19h.54v4.36h-.54v-.55h-.16Zm-.82.08c.18,0,.35-.05.51-.14s.32-.24.47-.43v-1.6c-.11-.07-.23-.12-.36-.16s-.26-.05-.41-.05c-.29,0-.51.06-.65.19-.14.13-.21.32-.21.59v.88c0,.24.05.43.16.55.11.12.27.18.49.18Z"/><path class="cls-1" d="m50.61,31.72c-.1.27-.25.47-.45.59-.2.12-.51.18-.92.18s-.77-.1-1.01-.31c-.24-.21-.36-.52-.36-.93v-.88c0-.42.13-.74.38-.95.25-.21.58-.31.99-.31s.74.11.99.32c.25.21.37.54.37.98v.5h-2.18v.34c0,.27.07.47.21.59.14.12.34.18.61.18s.45-.04.57-.11c.12-.07.21-.19.27-.35l.53.15Zm-2.19-1.35v.13h1.64v-.08c0-.29-.07-.51-.21-.64-.14-.13-.34-.2-.61-.2s-.48.06-.61.19c-.14.13-.21.33-.21.6Z"/><path class="cls-1" d="m53.1,32.49c-.28,0-.54-.04-.8-.12-.26-.08-.5-.21-.71-.38l.25-.43c.18.15.38.26.6.33.22.07.44.11.67.11.19,0,.37-.03.54-.09.17-.06.26-.18.26-.37,0-.16-.07-.27-.21-.33-.14-.07-.4-.12-.78-.17-.4-.05-.7-.14-.91-.28-.21-.14-.31-.36-.31-.67,0-.33.12-.58.37-.74.25-.17.54-.25.86-.25.26,0,.51.04.74.13s.46.21.66.37l-.25.43c-.17-.13-.35-.24-.55-.32s-.4-.12-.62-.12c-.17,0-.33.03-.48.1s-.21.19-.21.36c0,.15.07.26.2.32s.39.12.77.17c.42.05.73.15.93.3.21.15.31.37.31.65,0,.34-.14.59-.42.75s-.58.24-.93.24Z"/><path class="cls-1" d="m55.51,32.44v-.49h1.09v-2.29h-1.09v-.49h1.64v2.78h1.09v.49h-2.73Zm1.36-3.87c-.14,0-.25-.02-.34-.07-.08-.04-.13-.13-.13-.25v-.04c0-.12.04-.21.13-.25.09-.05.2-.07.34-.07s.25.02.33.07c.09.05.13.13.13.25v.04c0,.12-.04.2-.13.25-.09.04-.2.07-.33.07Z"/><path class="cls-1" d="m62.33,32.7c0,.29-.11.52-.33.66-.22.15-.48.22-.79.22h-1.03c-.33,0-.6-.07-.81-.2s-.32-.33-.32-.61c0-.17.05-.31.14-.42s.23-.16.41-.18v-.11c-.13-.02-.23-.07-.31-.16-.08-.08-.12-.21-.12-.39,0-.16.05-.3.15-.42.1-.12.26-.2.5-.21v-.1c-.18-.06-.3-.15-.36-.27-.06-.12-.09-.23-.09-.34v-.15c0-.25.11-.46.32-.62s.52-.25.91-.25h1.61v.49l-.85-.13v.1c.15.04.26.12.33.23s.11.23.11.34v.14c0,.25-.1.45-.29.61-.19.15-.51.23-.94.23h-.66c-.1,0-.17.02-.22.07-.05.05-.08.13-.08.25s.04.2.11.25c.07.06.18.08.32.08h1.24c.31,0,.56.07.76.2.2.13.3.35.3.66Zm-2.16.44h1.11c.16,0,.3-.03.4-.09.1-.06.15-.17.15-.32s-.05-.25-.14-.31c-.09-.06-.21-.09-.36-.09h-1.73v.37c0,.15.05.26.15.33.1.07.24.11.42.11Zm.41-2.37c.22,0,.39-.04.51-.12.12-.08.17-.21.17-.38v-.18c0-.17-.06-.3-.17-.38-.12-.08-.29-.12-.51-.12s-.39.04-.51.12c-.12.08-.17.2-.17.38v.18c0,.17.06.3.17.38.12.08.29.12.51.12Z"/><path class="cls-1" d="m63.15,32.44v-3.27h.54v.55h.16c.08-.19.21-.33.38-.44.17-.11.37-.16.58-.16.33,0,.58.1.77.3.19.2.28.47.28.82v2.21h-.54v-2.1c0-.23-.06-.4-.17-.53-.11-.12-.27-.18-.48-.18-.16,0-.33.05-.5.15-.17.1-.33.24-.49.43v2.24h-.54Z"/><path class="cls-1" d="m69.7,31.72c-.1.27-.25.47-.45.59-.2.12-.51.18-.92.18s-.77-.1-1.01-.31c-.24-.21-.36-.52-.36-.93v-.88c0-.42.13-.74.38-.95.25-.21.58-.31.99-.31s.74.11.99.32c.25.21.37.54.37.98v.5h-2.18v.34c0,.27.07.47.21.59.14.12.34.18.61.18s.45-.04.57-.11c.12-.07.21-.19.27-.35l.53.15Zm-2.19-1.35v.13h1.64v-.08c0-.29-.07-.51-.21-.64-.14-.13-.34-.2-.61-.2s-.48.06-.61.19c-.14.13-.21.33-.21.6Z"/><path class="cls-1" d="m72.8,31.89c-.09.19-.23.34-.39.44s-.35.16-.56.16c-.34,0-.6-.11-.79-.33-.19-.22-.28-.52-.28-.92v-.89c0-.4.12-.7.37-.92.25-.22.59-.33,1.04-.33.13,0,.26.01.39.04.13.03.26.06.38.11v-1.19h.54v4.36h-.54v-.55h-.16Zm-.82.08c.18,0,.35-.05.51-.14s.32-.24.47-.43v-1.6c-.11-.07-.23-.12-.36-.16s-.26-.05-.41-.05c-.29,0-.51.06-.65.19-.14.13-.21.32-.21.59v.88c0,.24.05.43.16.55.11.12.27.18.49.18Z"/><path class="cls-1" d="m79.32,32.49c-.28,0-.52-.07-.74-.22-.22-.15-.32-.38-.32-.71,0-.29.09-.51.28-.68.19-.16.41-.25.66-.25h1.13v-.47c0-.17-.06-.31-.17-.41s-.29-.15-.53-.15-.42.04-.54.11-.21.23-.28.47l-.48-.13c.06-.31.2-.54.42-.7.22-.16.51-.24.87-.24s.66.08.9.24c.24.16.36.41.36.75v1.46c0,.2.05.32.16.37.11.05.27.06.49.02v.5c-.23.03-.44.02-.63-.05-.2-.06-.31-.24-.33-.52h-.11c-.1.17-.25.31-.46.43-.2.12-.43.17-.68.17Zm.07-.46c.19,0,.36-.03.52-.1.16-.07.3-.19.41-.35v-.53h-.98c-.16,0-.29.04-.39.11-.1.07-.16.2-.16.38,0,.16.04.28.13.37.09.09.24.13.46.13Z"/><path class="cls-1" d="m82.24,32.44v-3.27h.54v.55h.16c.08-.19.21-.33.38-.44.17-.11.37-.16.58-.16.33,0,.58.1.77.3.19.2.28.47.28.82v2.21h-.54v-2.1c0-.23-.06-.4-.17-.53-.11-.12-.27-.18-.48-.18-.16,0-.33.05-.5.15-.17.1-.33.24-.49.43v2.24h-.54Z"/><path class="cls-1" d="m88.08,31.89c-.09.19-.23.34-.39.44s-.35.16-.56.16c-.34,0-.6-.11-.79-.33-.19-.22-.28-.52-.28-.92v-.89c0-.4.12-.7.37-.92.25-.22.59-.33,1.04-.33.13,0,.26.01.39.04.13.03.26.06.38.11v-1.19h.54v4.36h-.54v-.55h-.16Zm-.82.08c.18,0,.35-.05.51-.14s.32-.24.47-.43v-1.6c-.11-.07-.23-.12-.36-.16s-.26-.05-.41-.05c-.29,0-.51.06-.65.19-.14.13-.21.32-.21.59v.88c0,.24.05.43.16.55.11.12.27.18.49.18Z"/><path class="cls-1" d="m95.14,32.49c-.48,0-.83-.1-1.08-.31-.24-.21-.36-.52-.36-.92v-.88c0-.41.12-.73.36-.94.24-.21.6-.32,1.07-.32.42,0,.75.1.97.29.23.19.35.47.38.84l-.54.03c-.01-.23-.09-.39-.22-.5-.13-.11-.33-.16-.6-.16-.3,0-.52.06-.67.19-.15.12-.22.32-.22.58v.88c0,.25.07.44.22.56.15.12.37.19.67.19.26,0,.46-.05.59-.14.13-.09.21-.23.22-.42l.54.03c-.03.33-.15.59-.38.76s-.55.26-.97.26Z"/><path class="cls-1" d="m97.79,32.44v-3.27h.54v.55h.16c.08-.21.19-.36.35-.46s.35-.14.57-.14c.24,0,.45.08.61.24.16.16.25.39.25.68v.49h-.52v-.29c0-.21-.05-.36-.14-.46s-.23-.15-.42-.15c-.17,0-.33.04-.47.13-.14.08-.27.21-.39.39v2.29h-.54Z"/><path class="cls-1" d="m104.07,31.72c-.1.27-.25.47-.45.59-.2.12-.51.18-.92.18s-.77-.1-1.01-.31c-.24-.21-.36-.52-.36-.93v-.88c0-.42.13-.74.38-.95.25-.21.58-.31.99-.31s.74.11.99.32c.25.21.37.54.37.98v.5h-2.18v.34c0,.27.07.47.21.59.14.12.34.18.61.18s.45-.04.57-.11c.12-.07.21-.19.27-.35l.53.15Zm-2.19-1.35v.13h1.64v-.08c0-.29-.07-.51-.21-.64-.14-.13-.34-.2-.61-.2s-.48.06-.61.19c-.14.13-.21.33-.21.6Z"/><path class="cls-1" d="m106.05,32.49c-.28,0-.52-.07-.74-.22-.22-.15-.32-.38-.32-.71,0-.29.09-.51.28-.68.19-.16.41-.25.66-.25h1.13v-.47c0-.17-.06-.31-.17-.41s-.29-.15-.53-.15-.42.04-.54.11-.21.23-.28.47l-.48-.13c.06-.31.2-.54.42-.7.22-.16.51-.24.87-.24s.66.08.9.24c.24.16.36.41.36.75v1.46c0,.2.05.32.16.37.11.05.27.06.49.02v.5c-.23.03-.44.02-.63-.05-.2-.06-.31-.24-.33-.52h-.11c-.1.17-.25.31-.46.43-.2.12-.43.17-.68.17Zm.07-.46c.19,0,.36-.03.52-.1.16-.07.3-.19.41-.35v-.53h-.98c-.16,0-.29.04-.39.11-.1.07-.16.2-.16.38,0,.16.04.28.13.37.09.09.24.13.46.13Z"/><path class="cls-1" d="m110.87,32.49c-.36,0-.64-.09-.84-.27-.2-.18-.3-.45-.3-.82v-1.75h-.93v-.49h.93v-1.09h.54v1.09h1.42v.49h-1.42v1.7c0,.21.05.37.16.47.11.1.26.15.47.15.14,0,.27,0,.39-.03s.23-.05.34-.08l.11.5c-.12.04-.26.07-.4.09-.14.02-.3.04-.48.04Z"/><path class="cls-1" d="m115.52,31.72c-.1.27-.25.47-.45.59-.2.12-.51.18-.92.18s-.77-.1-1.01-.31c-.24-.21-.36-.52-.36-.93v-.88c0-.42.13-.74.38-.95.25-.21.58-.31.99-.31s.74.11.99.32c.25.21.37.54.37.98v.5h-2.18v.34c0,.27.07.47.21.59.14.12.34.18.61.18s.45-.04.57-.11c.12-.07.21-.19.27-.35l.53.15Zm-2.19-1.35v.13h1.64v-.08c0-.29-.07-.51-.21-.64-.14-.13-.34-.2-.61-.2s-.48.06-.61.19c-.14.13-.21.33-.21.6Z"/><path class="cls-1" d="m118.62,31.89c-.09.19-.23.34-.39.44s-.35.16-.56.16c-.34,0-.6-.11-.79-.33-.19-.22-.28-.52-.28-.92v-.89c0-.4.12-.7.37-.92.25-.22.59-.33,1.04-.33.13,0,.26.01.39.04.13.03.26.06.38.11v-1.19h.54v4.36h-.54v-.55h-.16Zm-.82.08c.18,0,.35-.05.51-.14s.32-.24.47-.43v-1.6c-.11-.07-.23-.12-.36-.16s-.26-.05-.41-.05c-.29,0-.51.06-.65.19-.14.13-.21.32-.21.59v.88c0,.24.05.43.16.55.11.12.27.18.49.18Z"/><path class="cls-1" d="m125.56,32.49c-.22,0-.44-.03-.68-.1-.23-.07-.45-.16-.64-.28v-4.04h.54v1.64h.16c.09-.19.22-.34.39-.44.17-.11.35-.16.56-.16.34,0,.6.11.79.33.19.22.28.52.28.92v.89c0,.4-.12.7-.37.92-.25.22-.59.33-1.04.33Zm0-.48c.29,0,.51-.06.65-.19.14-.13.21-.32.21-.59v-.87c0-.25-.05-.43-.16-.55-.11-.12-.27-.18-.49-.18-.18,0-.35.05-.51.14-.16.09-.32.24-.47.43v1.6c.12.07.24.12.36.16.12.03.26.05.41.05Z"/><path class="cls-1" d="m128.45,33.56c-.09,0-.17,0-.26-.02-.08-.01-.17-.03-.26-.04l.09-.49c.09.02.18.04.26.05.08.01.16.02.23.02.17,0,.32-.05.45-.14.13-.09.23-.25.3-.45l.02-.05h-.2l-1.16-3.27h.59l.92,2.81.92-2.81h.57l-1.2,3.38c-.12.35-.29.61-.5.77-.21.16-.47.24-.77.24Z"/><path class="cls-1" d="m79.71,41.49c-.54,0-.94-.12-1.2-.37-.26-.25-.4-.65-.42-1.2l.93-.06c.03.37.09.61.18.73.1.12.26.18.5.18.22,0,.38-.06.48-.17.1-.12.15-.32.15-.62v-2.19h-1.21v-.72h2.13v2.95c0,.47-.13.83-.38,1.09-.25.26-.64.39-1.17.39Z"/><path class="cls-1" d="m82.12,41.44v-.68h1.01v-1.91h-1.01v-.68h1.94v2.59h1.01v.68h-2.96Zm1.52-3.8c-.19,0-.34-.03-.45-.08s-.17-.16-.17-.3v-.07c0-.15.06-.25.17-.31s.27-.09.45-.09.34.03.45.09.17.16.17.31v.07c0,.14-.06.24-.17.3s-.27.08-.45.08Z"/><path class="cls-1" d="m86.83,41.49c-.31,0-.56-.08-.75-.25s-.29-.4-.29-.7.1-.53.31-.69c.21-.16.48-.24.83-.24h.86v-.4c0-.16-.05-.27-.14-.34-.09-.07-.23-.1-.41-.1s-.32.03-.41.1c-.09.07-.16.19-.2.39l-.76-.14c.08-.37.22-.63.43-.78s.54-.23.97-.23c.46,0,.8.09,1.04.26.24.18.36.45.36.81v1.27c0,.16.05.25.14.29s.23.04.4.02v.66c-.28.06-.52.06-.71-.02s-.31-.23-.37-.47h-.15c-.11.15-.27.28-.47.4-.2.11-.43.17-.68.17Zm.22-.6c.13,0,.26-.02.38-.06.12-.04.24-.1.34-.18v-.53h-.75c-.12,0-.22.03-.29.08s-.1.16-.1.32c0,.12.03.21.1.28.07.06.17.1.32.1Z"/><path class="cls-1" d="m89.8,41.44v-.68h1.05v-3h-1.05v-.68h1.98v3.68h1.01v.68h-3Z"/><path class="cls-1" d="m93.58,41.44v-.68h1.01v-1.91h-1.01v-.68h1.94v2.59h1.01v.68h-2.96Zm1.52-3.8c-.19,0-.34-.03-.45-.08s-.17-.16-.17-.3v-.07c0-.15.06-.25.17-.31s.27-.09.45-.09.34.03.45.09.17.16.17.31v.07c0,.14-.06.24-.17.3s-.27.08-.45.08Z"/><path class="cls-1" d="m97.36,41.44v-3.27h.93v.58h.16c.08-.2.22-.36.4-.47s.39-.17.63-.17c.29,0,.51.09.67.27.16.18.24.43.24.75v2.3h-.93v-2.14c0-.15-.04-.27-.11-.35-.07-.08-.18-.12-.31-.12-.12,0-.25.04-.39.11-.14.07-.26.18-.37.32v2.18h-.93Z"/><path class="cls-1" d="m104.96,41.44v-4.36h.93v1.59h1.25v-1.59h.93v4.36h-.93v-2.05h-1.25v2.05h-.93Z"/><path class="cls-1" d="m109.77,41.49c-.27,0-.5-.09-.68-.27-.18-.18-.28-.43-.28-.76v-2.3h.93v2.06c0,.18.04.31.11.4.07.09.18.14.31.14.13,0,.25-.04.38-.13.13-.09.25-.21.37-.37v-2.1h.93v3.27h-.93v-.58h-.16c-.09.22-.23.38-.42.48-.19.1-.38.16-.56.16Z"/><path class="cls-1" d="m113.55,41.49c-.31,0-.56-.08-.75-.25s-.29-.4-.29-.7.1-.53.31-.69c.21-.16.48-.24.83-.24h.86v-.4c0-.16-.05-.27-.14-.34-.09-.07-.23-.1-.41-.1s-.32.03-.41.1c-.09.07-.16.19-.2.39l-.76-.14c.08-.37.22-.63.43-.78s.54-.23.97-.23c.46,0,.8.09,1.04.26.24.18.36.45.36.81v1.27c0,.16.05.25.14.29s.23.04.4.02v.66c-.28.06-.52.06-.71-.02s-.31-.23-.37-.47h-.15c-.11.15-.27.28-.47.4-.2.11-.43.17-.68.17Zm.22-.6c.13,0,.26-.02.38-.06.12-.04.24-.1.34-.18v-.53h-.75c-.12,0-.22.03-.29.08s-.1.16-.1.32c0,.12.03.21.1.28.07.06.17.1.32.1Z"/><path class="cls-1" d="m116.45,41.44v-3.27h.93v.58h.16c.08-.2.22-.36.4-.47s.39-.17.63-.17c.29,0,.51.09.67.27.16.18.24.43.24.75v2.3h-.93v-2.14c0-.15-.04-.27-.11-.35-.07-.08-.18-.12-.31-.12-.12,0-.25.04-.39.11-.14.07-.26.18-.37.32v2.18h-.93Z"/><path class="cls-1" d="m123.5,41.62c0,.29-.11.53-.34.7-.22.17-.52.26-.89.26h-.97c-.4,0-.71-.07-.92-.22-.21-.14-.32-.33-.32-.56,0-.18.06-.33.17-.44.11-.11.25-.17.42-.19v-.11c-.13-.04-.24-.1-.33-.18s-.14-.21-.14-.39c0-.19.07-.35.2-.47.13-.12.31-.2.52-.23v-.1c-.19-.05-.32-.13-.42-.24-.09-.11-.14-.24-.14-.38v-.05c0-.27.12-.48.35-.64s.53-.23.9-.23h1.85v.57l-.88-.11v.11c.13.04.24.11.33.21.08.1.13.22.13.34v.06c0,.26-.12.47-.35.61-.23.15-.54.22-.92.22h-.53c-.11,0-.2.02-.26.06s-.1.11-.1.22.04.17.11.21.17.07.29.07h1.04c.36,0,.64.07.86.22.22.14.33.37.33.67Zm-2.18.41h.98c.13,0,.24-.02.32-.06s.12-.13.12-.25-.04-.21-.12-.25c-.08-.04-.18-.06-.31-.06h-1.35v.29c0,.11.03.2.09.26.06.06.15.09.27.09Zm.38-2.32c.17,0,.29-.03.37-.1s.12-.16.12-.29v-.24c0-.12-.04-.21-.12-.27s-.2-.1-.37-.1-.29.03-.37.1-.12.16-.12.27v.24c0,.12.04.22.11.29s.2.1.38.1Z"/><path class="cls-1" d="m126.97,41.33l-2.73-1.53v-.55l2.73-1.53v.52l-2.29,1.28,2.29,1.28v.52Z"/><path class="cls-1" d="m130.79,41.33l-2.73-1.53v-.55l2.73-1.53v.52l-2.29,1.28,2.29,1.28v.52Z"/><path class="cls-1" d="m77.87,42.49v-.3h45.82v.3h-45.82Z"/></g><g><path class="cls-1" d="m9.3,59.42v-.41h.91v-2.82h-.91v-.41h2.27v.41h-.91v2.82h.91v.41h-2.27Z"/><path class="cls-1" d="m12.48,59.42v-2.73h.46v.45h.14c.07-.15.17-.28.31-.37s.3-.13.49-.13c.27,0,.49.08.65.25.16.17.24.39.24.68v1.84h-.46v-1.75c0-.19-.05-.34-.14-.44-.09-.1-.22-.15-.4-.15-.14,0-.28.04-.42.12-.14.08-.28.2-.41.35v1.86h-.46Z"/><path class="cls-1" d="m15.66,59.42v-2.73h.46v.45h.14c.07-.15.17-.28.31-.37s.3-.13.49-.13c.27,0,.49.08.65.25.16.17.24.39.24.68v1.84h-.46v-1.75c0-.19-.05-.34-.14-.44-.09-.1-.22-.15-.4-.15-.14,0-.28.04-.42.12-.14.08-.28.2-.41.35v1.86h-.46Z"/><path class="cls-1" d="m19.98,59.47c-.37,0-.65-.09-.84-.27-.2-.18-.29-.43-.29-.77v-.74c0-.34.1-.6.3-.78s.48-.27.85-.27.64.09.84.27c.2.18.29.44.29.78v.74c0,.33-.1.59-.29.77-.2.18-.48.27-.84.27Zm0-.41c.23,0,.4-.05.51-.15s.17-.26.17-.47v-.74c0-.22-.06-.38-.17-.48-.11-.1-.28-.16-.51-.16s-.4.05-.51.16c-.11.1-.17.27-.17.48v.74c0,.21.06.37.17.47s.28.15.51.15Z"/><path class="cls-1" d="m23.44,59.42h-.57l-.97-2.73h.5l.76,2.36.76-2.36h.48l-.97,2.73Z"/><path class="cls-1" d="m25.95,59.47c-.23,0-.44-.06-.62-.18-.18-.12-.27-.32-.27-.59,0-.24.08-.43.23-.56.16-.14.34-.2.55-.2h.95v-.39c0-.15-.05-.26-.15-.35-.1-.08-.24-.13-.44-.13s-.35.03-.45.09c-.1.06-.18.19-.23.39l-.4-.11c.05-.26.17-.45.35-.58.18-.13.42-.2.73-.2s.55.07.75.2c.2.13.3.34.3.63v1.22c0,.16.05.27.14.31s.23.05.41.02v.41c-.19.03-.37.01-.53-.04-.17-.05-.25-.2-.27-.43h-.09c-.08.14-.21.26-.38.35-.17.1-.36.15-.57.15Zm.06-.39c.16,0,.3-.03.44-.08.13-.06.25-.15.35-.29v-.44h-.82c-.13,0-.24.03-.33.09-.09.06-.13.16-.13.31,0,.13.04.23.11.31s.2.11.38.11Z"/><path class="cls-1" d="m29.97,59.46c-.3,0-.53-.07-.7-.22s-.25-.38-.25-.68v-1.45h-.77v-.41h.77v-.91h.46v.91h1.18v.41h-1.18v1.41c0,.18.04.31.13.39.09.08.22.13.39.13.12,0,.22,0,.32-.02.1-.02.2-.04.29-.07l.09.41c-.1.03-.21.06-.33.07-.12.02-.25.03-.4.03Z"/><path class="cls-1" d="m31.57,59.42v-.41h.91v-1.91h-.91v-.41h1.36v2.32h.91v.41h-2.27Zm1.14-3.23c-.12,0-.21-.02-.28-.05-.07-.04-.11-.1-.11-.2v-.03c0-.1.04-.17.11-.21s.16-.06.28-.06.21.02.28.06.11.11.11.21v.03c0,.1-.04.17-.11.2-.07.04-.17.05-.28.05Z"/><path class="cls-1" d="m36.17,59.42h-.57l-.97-2.73h.5l.76,2.36.76-2.36h.48l-.97,2.73Z"/><path class="cls-1" d="m40.21,58.82c-.08.23-.21.39-.37.49-.17.1-.42.15-.77.15s-.64-.09-.84-.26c-.2-.17-.3-.43-.3-.77v-.73c0-.35.11-.61.32-.79s.49-.26.83-.26.62.09.82.27.31.45.31.82v.42h-1.82v.29c0,.23.06.39.17.49.11.1.28.15.51.15s.38-.03.48-.09c.1-.06.18-.16.23-.3l.44.13Zm-1.83-1.12v.11h1.36v-.07c0-.25-.06-.42-.17-.54-.11-.11-.28-.17-.51-.17s-.4.05-.51.16c-.11.11-.17.27-.17.5Z"/><path class="cls-1" d="m66.56,58.97c-.08.16-.19.28-.33.37-.14.09-.3.13-.47.13-.28,0-.5-.09-.65-.27-.15-.18-.23-.44-.23-.76v-.74c0-.33.1-.59.31-.77s.49-.27.86-.27c.11,0,.22.01.33.03.11.02.22.05.32.09v-.99h.46v3.64h-.46v-.45h-.14Zm-.68.07c.15,0,.29-.04.42-.12.13-.08.27-.2.4-.36v-1.34c-.09-.06-.19-.1-.3-.13s-.22-.04-.34-.04c-.25,0-.43.05-.55.16s-.18.27-.18.49v.73c0,.2.04.35.14.45.09.1.23.15.41.15Z"/><path class="cls-1" d="m70.34,58.82c-.08.23-.21.39-.37.49-.17.1-.42.15-.77.15s-.64-.09-.84-.26c-.2-.17-.3-.43-.3-.77v-.73c0-.35.11-.61.32-.79s.49-.26.83-.26.62.09.82.27.31.45.31.82v.42h-1.82v.29c0,.23.06.39.17.49.11.1.28.15.51.15s.38-.03.48-.09c.1-.06.18-.16.23-.3l.44.13Zm-1.83-1.12v.11h1.36v-.07c0-.25-.06-.42-.17-.54-.11-.11-.28-.17-.51-.17s-.4.05-.51.16c-.11.11-.17.27-.17.5Z"/><path class="cls-1" d="m72.41,59.47c-.23,0-.45-.03-.67-.1-.21-.07-.41-.17-.6-.32l.21-.36c.15.12.31.21.5.27.18.06.37.09.56.09.16,0,.31-.02.45-.07.14-.05.22-.15.22-.31,0-.13-.06-.22-.18-.28s-.33-.1-.65-.14c-.33-.04-.58-.12-.76-.23-.17-.12-.26-.3-.26-.55,0-.27.1-.48.31-.62s.45-.21.72-.21c.22,0,.42.04.62.11.2.07.38.18.55.31l-.2.36c-.14-.11-.29-.2-.46-.27-.16-.07-.33-.1-.51-.1-.15,0-.28.03-.4.08s-.18.15-.18.3c0,.12.06.21.17.27s.32.1.64.14c.35.04.6.12.78.25s.26.31.26.54c0,.29-.12.49-.34.62-.23.13-.49.2-.77.2Z"/><path class="cls-1" d="m74.42,59.42v-.41h.91v-1.91h-.91v-.41h1.36v2.32h.91v.41h-2.27Zm1.14-3.23c-.12,0-.21-.02-.28-.05-.07-.04-.11-.1-.11-.2v-.03c0-.1.04-.17.11-.21s.16-.06.28-.06.21.02.28.06.11.11.11.21v.03c0,.1-.04.17-.11.2-.07.04-.17.05-.28.05Z"/><path class="cls-1" d="m80.1,59.64c0,.25-.09.43-.27.55-.18.12-.4.18-.66.18h-.85c-.27,0-.5-.05-.67-.16-.18-.11-.27-.28-.27-.5,0-.15.04-.26.12-.35.08-.09.19-.14.34-.15v-.1c-.11-.02-.19-.06-.26-.13-.07-.07-.1-.18-.1-.32,0-.13.04-.25.12-.35.08-.1.22-.16.41-.18v-.09c-.15-.05-.25-.12-.3-.22-.05-.1-.08-.19-.08-.28v-.12c0-.21.09-.38.27-.52s.43-.21.75-.21h1.34v.41l-.7-.1v.08c.12.03.21.1.27.19.06.09.09.19.09.28v.12c0,.21-.08.38-.24.51-.16.13-.42.19-.78.19h-.55c-.08,0-.14.02-.19.06-.04.04-.06.11-.06.21s.03.16.09.21c.06.05.15.07.27.07h1.03c.25,0,.47.06.63.17.17.11.25.3.25.55Zm-1.79.37h.92c.14,0,.25-.03.33-.08.08-.05.13-.14.13-.27s-.04-.21-.12-.26-.18-.08-.3-.08h-1.45v.31c0,.12.04.22.12.28.08.06.2.09.35.09Zm.34-1.98c.18,0,.33-.03.42-.1s.15-.17.15-.32v-.15c0-.14-.05-.25-.15-.31-.1-.07-.24-.1-.42-.1s-.33.03-.42.1c-.1.07-.15.17-.15.31v.15c0,.14.05.25.15.32s.24.1.42.1Z"/><path class="cls-1" d="m80.78,59.42v-2.73h.46v.45h.14c.07-.15.17-.28.31-.37s.3-.13.49-.13c.27,0,.49.08.65.25.16.17.24.39.24.68v1.84h-.46v-1.75c0-.19-.05-.34-.14-.44-.09-.1-.22-.15-.4-.15-.14,0-.28.04-.42.12-.14.08-.28.2-.41.35v1.86h-.46Z"/><path class="cls-1" d="m110.01,58.82c-.08.23-.21.39-.37.49-.17.1-.42.15-.77.15s-.64-.09-.84-.26c-.2-.17-.3-.43-.3-.77v-.73c0-.35.11-.61.32-.79s.49-.26.83-.26.62.09.82.27.31.45.31.82v.42h-1.82v.29c0,.23.06.39.17.49.11.1.28.15.51.15s.38-.03.48-.09c.1-.06.18-.16.23-.3l.44.13Zm-1.83-1.12v.11h1.36v-.07c0-.25-.06-.42-.17-.54-.11-.11-.28-.17-.51-.17s-.4.05-.51.16c-.11.11-.17.27-.17.5Z"/><path class="cls-1" d="m112.72,59.42l-.71-1.04-.67,1.04h-.5l.95-1.37-.92-1.36h.51l.68,1,.69-1h.5l-.96,1.34.95,1.39h-.51Z"/><path class="cls-1" d="m115.19,59.47c-.1,0-.21-.01-.33-.03-.11-.02-.22-.05-.32-.09v.99h-.46v-3.64h.46v.45h.14c.08-.15.19-.28.33-.37s.3-.13.47-.13c.27,0,.49.09.65.28s.24.44.24.76v.74c0,.32-.11.58-.32.76-.21.19-.5.28-.86.28Zm0-.4c.25,0,.44-.05.55-.15.11-.1.17-.27.17-.5v-.74c0-.21-.04-.36-.13-.46-.09-.1-.23-.14-.42-.14-.15,0-.29.04-.42.11-.13.08-.26.2-.4.36v1.34c.09.06.19.1.29.13.1.03.22.04.35.04Z"/><path class="cls-1" d="m117.27,59.42v-.41h.91v-2.82h-.91v-.41h1.36v3.23h.91v.41h-2.27Z"/><path class="cls-1" d="m121.59,59.47c-.37,0-.65-.09-.84-.27-.2-.18-.29-.43-.29-.77v-.74c0-.34.1-.6.3-.78s.48-.27.85-.27.64.09.84.27c.2.18.29.44.29.78v.74c0,.33-.1.59-.29.77-.2.18-.48.27-.84.27Zm0-.41c.23,0,.4-.05.51-.15s.17-.26.17-.47v-.74c0-.22-.06-.38-.17-.48-.11-.1-.28-.16-.51-.16s-.4.05-.51.16c-.11.1-.17.27-.17.48v.74c0,.21.06.37.17.47s.28.15.51.15Z"/><path class="cls-1" d="m123.86,59.42v-2.73h.46v.45h.14c.06-.17.16-.3.29-.38.13-.08.29-.12.47-.12.2,0,.37.07.51.2.14.13.2.32.2.57v.41h-.43v-.25c0-.17-.04-.3-.12-.38-.08-.08-.19-.12-.35-.12-.14,0-.27.03-.39.1-.12.07-.22.18-.32.33v1.91h-.46Z"/><path class="cls-1" d="m129.1,58.82c-.08.23-.21.39-.37.49-.17.1-.42.15-.77.15s-.64-.09-.84-.26c-.2-.17-.3-.43-.3-.77v-.73c0-.35.11-.61.32-.79s.49-.26.83-.26.62.09.82.27.31.45.31.82v.42h-1.82v.29c0,.23.06.39.17.49.11.1.28.15.51.15s.38-.03.48-.09c.1-.06.18-.16.23-.3l.44.13Zm-1.83-1.12v.11h1.36v-.07c0-.25-.06-.42-.17-.54-.11-.11-.28-.17-.51-.17s-.4.05-.51.16c-.11.11-.17.27-.17.5Z"/><path class="cls-1" d="m131.17,59.47c-.23,0-.45-.03-.67-.1-.21-.07-.41-.17-.6-.32l.21-.36c.15.12.31.21.5.27.18.06.37.09.56.09.16,0,.31-.02.45-.07.14-.05.22-.15.22-.31,0-.13-.06-.22-.18-.28s-.33-.1-.65-.14c-.33-.04-.58-.12-.76-.23-.17-.12-.26-.3-.26-.55,0-.27.1-.48.31-.62s.45-.21.72-.21c.22,0,.42.04.62.11.2.07.38.18.55.31l-.2.36c-.14-.11-.29-.2-.46-.27-.16-.07-.33-.1-.51-.1-.15,0-.28.03-.4.08s-.18.15-.18.3c0,.12.06.21.17.27s.32.1.64.14c.35.04.6.12.78.25s.26.31.26.54c0,.29-.12.49-.34.62-.23.13-.49.2-.77.2Z"/><path class="cls-1" d="m10.88,65.46c-.3,0-.53-.07-.7-.22s-.25-.38-.25-.68v-1.45h-.77v-.41h.77v-.91h.46v.91h1.18v.41h-1.18v1.41c0,.18.04.31.13.39.09.08.22.13.39.13.12,0,.22,0,.32-.02.1-.02.2-.04.29-.07l.09.41c-.1.03-.21.06-.33.07-.12.02-.25.03-.4.03Z"/><path class="cls-1" d="m14.76,64.82c-.08.23-.21.39-.37.49-.17.1-.42.15-.77.15s-.64-.09-.84-.26c-.2-.17-.3-.43-.3-.77v-.73c0-.35.11-.61.32-.79s.49-.26.83-.26.62.09.82.27.31.45.31.82v.42h-1.82v.29c0,.23.06.39.17.49.11.1.28.15.51.15s.38-.03.48-.09c.1-.06.18-.16.23-.3l.44.13Zm-1.83-1.12v.11h1.36v-.07c0-.25-.06-.42-.17-.54-.11-.11-.28-.17-.51-.17s-.4.05-.51.16c-.11.11-.17.27-.17.5Z"/><path class="cls-1" d="m17.47,65.42l-.71-1.04-.67,1.04h-.5l.95-1.37-.92-1.36h.51l.68,1,.69-1h.5l-.96,1.34.95,1.39h-.51Z"/><path class="cls-1" d="m20.43,65.46c-.3,0-.53-.07-.7-.22s-.25-.38-.25-.68v-1.45h-.77v-.41h.77v-.91h.46v.91h1.18v.41h-1.18v1.41c0,.18.04.31.13.39.09.08.22.13.39.13.12,0,.22,0,.32-.02.1-.02.2-.04.29-.07l.09.41c-.1.03-.21.06-.33.07-.12.02-.25.03-.4.03Z"/><path class="cls-1" d="m92.7,65.47c-.26,0-.48-.09-.64-.26-.16-.17-.24-.4-.24-.67v-1.84h.46v1.75c0,.2.04.35.13.45s.22.15.4.15c.14,0,.28-.04.42-.12.13-.08.27-.2.41-.36v-1.86h.46v2.73h-.46v-.45h-.14c-.06.15-.17.27-.32.36-.15.09-.31.14-.48.14Z"/><path class="cls-1" d="m95,65.42v-2.73h.46v.45h.14c.07-.15.17-.28.31-.37s.3-.13.49-.13c.27,0,.49.08.65.25.16.17.24.39.24.68v1.84h-.46v-1.75c0-.19-.05-.34-.14-.44-.09-.1-.22-.15-.4-.15-.14,0-.28.04-.42.12-.14.08-.28.2-.41.35v1.86h-.46Z"/><path class="cls-1" d="m99.86,64.97c-.08.16-.19.28-.33.37-.14.09-.3.13-.47.13-.28,0-.5-.09-.65-.27-.15-.18-.23-.44-.23-.76v-.74c0-.33.1-.59.31-.77s.49-.27.86-.27c.11,0,.22.01.33.03.11.02.22.05.32.09v-.99h.46v3.64h-.46v-.45h-.14Zm-.68.07c.15,0,.29-.04.42-.12.13-.08.27-.2.4-.36v-1.34c-.09-.06-.19-.1-.3-.13s-.22-.04-.34-.04c-.25,0-.43.05-.55.16s-.18.27-.18.49v.73c0,.2.04.35.14.45.09.1.23.15.41.15Z"/><path class="cls-1" d="m103.65,64.82c-.08.23-.21.39-.37.49-.17.1-.42.15-.77.15s-.64-.09-.84-.26c-.2-.17-.3-.43-.3-.77v-.73c0-.35.11-.61.32-.79s.49-.26.83-.26.62.09.82.27.31.45.31.82v.42h-1.82v.29c0,.23.06.39.17.49.11.1.28.15.51.15s.38-.03.48-.09c.1-.06.18-.16.23-.3l.44.13Zm-1.83-1.12v.11h1.36v-.07c0-.25-.06-.42-.17-.54-.11-.11-.28-.17-.51-.17s-.4.05-.51.16c-.11.11-.17.27-.17.5Z"/><path class="cls-1" d="m104.77,65.42v-2.73h.46v.45h.14c.06-.17.16-.3.29-.38.13-.08.29-.12.47-.12.2,0,.37.07.51.2.14.13.2.32.2.57v.41h-.43v-.25c0-.17-.04-.3-.12-.38-.08-.08-.19-.12-.35-.12-.14,0-.27.03-.39.1-.12.07-.22.18-.32.33v1.91h-.46Z"/><path class="cls-1" d="m108.9,65.47c-.23,0-.45-.03-.67-.1-.21-.07-.41-.17-.6-.32l.21-.36c.15.12.31.21.5.27.18.06.37.09.56.09.16,0,.31-.02.45-.07.14-.05.22-.15.22-.31,0-.13-.06-.22-.18-.28s-.33-.1-.65-.14c-.33-.04-.58-.12-.76-.23-.17-.12-.26-.3-.26-.55,0-.27.1-.48.31-.62s.45-.21.72-.21c.22,0,.42.04.62.11.2.07.38.18.55.31l-.2.36c-.14-.11-.29-.2-.46-.27-.16-.07-.33-.1-.51-.1-.15,0-.28.03-.4.08s-.18.15-.18.3c0,.12.06.21.17.27s.32.1.64.14c.35.04.6.12.78.25s.26.31.26.54c0,.29-.12.49-.34.62-.23.13-.49.2-.77.2Z"/><path class="cls-1" d="m112.5,65.46c-.3,0-.53-.07-.7-.22s-.25-.38-.25-.68v-1.45h-.77v-.41h.77v-.91h.46v.91h1.18v.41h-1.18v1.41c0,.18.04.31.13.39.09.08.22.13.39.13.12,0,.22,0,.32-.02.1-.02.2-.04.29-.07l.09.41c-.1.03-.21.06-.33.07-.12.02-.25.03-.4.03Z"/><path class="cls-1" d="m114.84,65.47c-.23,0-.44-.06-.62-.18-.18-.12-.27-.32-.27-.59,0-.24.08-.43.23-.56.16-.14.34-.2.55-.2h.95v-.39c0-.15-.05-.26-.15-.35-.1-.08-.24-.13-.44-.13s-.35.03-.45.09c-.1.06-.18.19-.23.39l-.4-.11c.05-.26.17-.45.35-.58.18-.13.42-.2.73-.2s.55.07.75.2c.2.13.3.34.3.63v1.22c0,.16.05.27.14.31s.23.05.41.02v.41c-.19.03-.37.01-.53-.04-.17-.05-.25-.2-.27-.43h-.09c-.08.14-.21.26-.38.35-.17.1-.36.15-.57.15Zm.06-.39c.16,0,.3-.03.44-.08.13-.06.25-.15.35-.29v-.44h-.82c-.13,0-.24.03-.33.09-.09.06-.13.16-.13.31,0,.13.04.23.11.31s.2.11.38.11Z"/><path class="cls-1" d="m117.27,65.42v-2.73h.46v.45h.14c.07-.15.17-.28.31-.37s.3-.13.49-.13c.27,0,.49.08.65.25.16.17.24.39.24.68v1.84h-.46v-1.75c0-.19-.05-.34-.14-.44-.09-.1-.22-.15-.4-.15-.14,0-.28.04-.42.12-.14.08-.28.2-.41.35v1.86h-.46Z"/><path class="cls-1" d="m122.14,64.97c-.08.16-.19.28-.33.37-.14.09-.3.13-.47.13-.28,0-.5-.09-.65-.27-.15-.18-.23-.44-.23-.76v-.74c0-.33.1-.59.31-.77s.49-.27.86-.27c.11,0,.22.01.33.03.11.02.22.05.32.09v-.99h.46v3.64h-.46v-.45h-.14Zm-.68.07c.15,0,.29-.04.42-.12.13-.08.27-.2.4-.36v-1.34c-.09-.06-.19-.1-.3-.13s-.22-.04-.34-.04c-.25,0-.43.05-.55.16s-.18.27-.18.49v.73c0,.2.04.35.14.45.09.1.23.15.41.15Z"/><path class="cls-1" d="m123.64,65.42v-.41h.91v-1.91h-.91v-.41h1.36v2.32h.91v.41h-2.27Zm1.14-3.23c-.12,0-.21-.02-.28-.05-.07-.04-.11-.1-.11-.2v-.03c0-.1.04-.17.11-.21s.16-.06.28-.06.21.02.28.06.11.11.11.21v.03c0,.1-.04.17-.11.2-.07.04-.17.05-.28.05Z"/><path class="cls-1" d="m126.82,65.42v-2.73h.46v.45h.14c.07-.15.17-.28.31-.37s.3-.13.49-.13c.27,0,.49.08.65.25.16.17.24.39.24.68v1.84h-.46v-1.75c0-.19-.05-.34-.14-.44-.09-.1-.22-.15-.4-.15-.14,0-.28.04-.42.12-.14.08-.28.2-.41.35v1.86h-.46Z"/><path class="cls-1" d="m132.5,65.64c0,.25-.09.43-.27.55-.18.12-.4.18-.66.18h-.85c-.27,0-.5-.05-.67-.16-.18-.11-.27-.28-.27-.5,0-.15.04-.26.12-.35.08-.09.19-.14.34-.15v-.1c-.11-.02-.19-.06-.26-.13-.07-.07-.1-.18-.1-.32,0-.13.04-.25.12-.35.08-.1.22-.16.41-.18v-.09c-.15-.05-.25-.12-.3-.22-.05-.1-.08-.19-.08-.28v-.12c0-.21.09-.38.27-.52s.43-.21.75-.21h1.34v.41l-.7-.1v.08c.12.03.21.1.27.19.06.09.09.19.09.28v.12c0,.21-.08.38-.24.51-.16.13-.42.19-.78.19h-.55c-.08,0-.14.02-.19.06-.04.04-.06.11-.06.21s.03.16.09.21c.06.05.15.07.27.07h1.03c.25,0,.47.06.63.17.17.11.25.3.25.55Zm-1.79.37h.92c.14,0,.25-.03.33-.08.08-.05.13-.14.13-.27s-.04-.21-.12-.26-.18-.08-.3-.08h-1.45v.31c0,.12.04.22.12.28.08.06.2.09.35.09Zm.34-1.98c.18,0,.33-.03.42-.1s.15-.17.15-.32v-.15c0-.14-.05-.25-.15-.31-.1-.07-.24-.1-.42-.1s-.33.03-.42.1c-.1.07-.15.17-.15.31v.15c0,.14.05.25.15.32s.24.1.42.1Z"/></g></svg>