<?xml version="1.0" encoding="UTF-8"?><svg id="Layer_3" xmlns="http://www.w3.org/2000/svg" viewBox="0 0 112.3 33.15"><defs><style>.cls-1,.cls-2{fill:#010101;}.cls-3{fill:#1d1d1b;}.cls-2{fill-rule:evenodd;}</style></defs><path class="cls-3" d="m84.44,20.77l2.98-7.68h1.1s3.12,7.7,3.12,7.7h-1.16s-.89-2.34-.89-2.34h-3.21s-.85,2.32-.85,2.32h-1.08s0,0,0,0Zm2.23-3.15h2.61s-.8-2.12-.8-2.12c-.24-.65-.42-1.18-.54-1.6-.1.5-.24.99-.42,1.47l-.85,2.25Zm5.78,3.18l.02-7.69h2.9c.51.01.9.04,1.17.09.38.06.69.18.95.36.25.18.46.43.61.74.16.33.24.69.23,1.05,0,.65-.21,1.21-.63,1.66s-1.17.68-2.26.67h-1.97s-.01,3.12-.01,3.12h-1.02s0,0,0,0Zm1.03-4.03h1.99c.66,0,1.12-.11,1.4-.36.28-.24.42-.59.42-1.03,0-.32-.08-.6-.24-.83-.15-.22-.38-.38-.64-.46-.17-.05-.49-.07-.95-.07h-1.97s0,2.74,0,2.74Zm6.3,4.05l.02-7.69h1.02s-.02,7.69-.02,7.69h-1.02Z"/><path class="cls-3" d="m101.45,27.8l-8.13-.03c-.51-.01-.91-.43-.89-.94.01-.49.41-.89.9-.89l8.13.03c4.08.01,7.41-3.29,7.42-7.37.01-3.72-2.76-6.89-6.45-7.36l-.65-.08-.13-.64c-.75-3.69-4.03-6.38-7.8-6.39-4.4-.01-8,3.56-8.01,7.96,0,.09,0,.18,0,.3l.03,1.05-1.05-.11c-.22-.02-.44-.04-.66-.04-3.48-.01-6.33,2.81-6.34,6.3-.01,3.48,2.81,6.33,6.3,6.34h2.2c.51.02.91.44.89.94-.01.49-.41.89-.9.89h-2.2c-4.49-.02-8.13-3.69-8.12-8.18s3.6-8.05,8.03-8.12c.36-5.41,5.04-9.5,10.45-9.14,2.06.14,4.02.92,5.61,2.24,1.55,1.29,2.67,3.03,3.21,4.98,4.28.85,7.43,4.65,7.41,9.08-.02,5.09-4.16,9.21-9.25,9.2Z"/><path class="cls-3" d="m95.4,30.81c-.23,0-.45-.09-.62-.24l-3.98-3.67,3.79-3.92c.36-.36.94-.35,1.29,0,.34.35.35.9.02,1.26l-2.49,2.58,2.6,2.4c.37.34.39.92.05,1.29-.17.19-.42.29-.67.29h0Z"/><g id="Page-1"><g id="add"><path id="Combined-Shape" class="cls-2" d="m22.84,3.24l11.22,6.46-.04,12.85-11.27,6.39-11.22-6.46v-3.21s3.26.01,3.26.01v1.36s7.98,4.6,7.98,4.6l8.01-4.55.03-9.14-7.98-4.6-8.01,4.55v1.36s-3.25-.01-3.25-.01v-3.21s11.28-6.39,11.28-6.39Zm-15.62,6.85l2.26,2.28-2.08,2.07,17,.06v3.21s-17.01-.06-17.01-.06l2.07,2.08-2.28,2.26-5.94-5.97,5.97-5.94Z"/></g></g><path class="cls-1" d="m47.73,2.41l16.97.06c1.92,0,3.48,1.53,3.47,3.4l-.06,17.62c0,.61-.35,1.46-.79,1.9l-3.15,3.16c-.44.44-1.28.79-1.91.79l-14.43-.05c-1.92,0-3.48-1.53-3.47-3.4l.07-20.2c0-1.83,1.48-3.29,3.3-3.28Zm15.09,24.97l3.28-3.3c.1-.1.2-.35.2-.51l.06-17.7c-.01-.91-.76-1.64-1.68-1.63l-16.68-.05c-.98,0-1.78.78-1.79,1.76,0,0,0,0,0,.01l-.06,19.95c0,.9.75,1.63,1.68,1.63l14.5.05c.18,0,.36-.08.49-.2h0Zm-.22-6.16l3.73.05c.49,0,.9.4.9.89,0,.49-.41.88-.9.88,0,0,0,0,0,0l-3.73-.05c-.22,0-.39.16-.39.37v4.25c-.02.49-.42.88-.91.88,0,0,0,0,0,0-.49,0-.89-.39-.9-.88,0,0,0,0,0,0v-4.25c.02-1.18,1-2.13,2.21-2.13Zm-9.63-3.88c.29.29.29.77,0,1.06-.14.14-.33.22-.53.21-.2,0-.39-.08-.53-.22l-3.47-3.45c-.29-.29-.29-.76,0-1.06,0,0,0,0,0,0l3.49-3.43c.29-.29.77-.28,1.06,0,.29.29.29.75,0,1.06l-2.95,2.9,2.93,2.92h0Zm6.58-5.8c-.29-.29-.29-.76,0-1.06,0,0,0,0,0,0,.29-.29.77-.28,1.06,0l3.47,3.45c.29.29.29.76,0,1.06,0,0,0,0,0,0l-3.49,3.43c-.14.14-.33.22-.53.21-.41,0-.75-.33-.75-.75,0-.2.08-.39.22-.53l2.95-2.9-2.94-2.92h0Zm-1.39-2.23c.38.14.58.56.45.96l-3.27,8.84c-.15.39-.57.58-.96.45-.39-.13-.6-.55-.46-.94,0,0,0-.02,0-.02l3.27-8.84c.15-.39.58-.58.97-.45h0Z"/></svg>