<?xml version="1.0" encoding="utf-8"?>
<!-- Generator: Adobe Illustrator 27.2.0, SVG Export Plug-In . SVG Version: 6.00 Build 0)  -->
<svg version="1.1" id="Layer_2_00000162312661373383012620000016796442823207413689_"
	 xmlns="http://www.w3.org/2000/svg" xmlns:xlink="http://www.w3.org/1999/xlink" x="0px" y="0px" viewBox="0 0 166 168"
	 style="enable-background:new 0 0 166 168;" xml:space="preserve">
<path d="M12,113.62l35.19-33.67c1.91-1.9,5.16-0.55,5.16,2.15v22.41H96.1c15.16,0,29.26-14.97,29.26-32.11
	c0-17.24-14.02-31.8-32.57-31.8H61.84c-1.67,0-3.03-1.36-3.03-3.03V18.22c0-1.67,1.36-3.03,3.03-3.03h37.11
	c21.24,0,52.41,21.75,52.41,56.14c0,39.1-33.54,58.43-54.46,58.43H52.44v19.9c0,2.69-3.25,4.04-5.16,2.15L12,117.92
	C10.81,116.73,10.81,114.81,12,113.62z"/>
</svg>
