<?xml version="1.0" encoding="UTF-8"?><svg id="Layer_1" xmlns="http://www.w3.org/2000/svg" viewBox="0 0 190.58 51.53"><defs><style>.cls-1,.cls-2{fill:#010101;}.cls-3{fill:#1d1d1b;}.cls-2{fill-rule:evenodd;}</style></defs><g><path class="cls-3" d="m143.13,33.4l5.38-13.87h1.98s5.64,13.91,5.64,13.91h-2.09s-1.61-4.22-1.61-4.22l-5.81-.02-1.54,4.2h-1.95s0,0,0,0Zm4.03-5.69l4.71.02-1.44-3.85c-.44-1.17-.76-2.13-.98-2.88-.18.9-.44,1.79-.76,2.65l-1.54,4.07Zm10.44,5.74l.05-13.89,5.24.02c.92,0,1.63.05,2.11.14.68.12,1.25.33,1.71.65.46.32.83.77,1.11,1.34.28.59.42,1.24.42,1.9,0,1.18-.38,2.18-1.14,2.99s-2.11,1.22-4.08,1.21h-3.56s-.02,5.63-.02,5.63h-1.84s0,0,0,0Zm1.86-7.28h3.59c1.19.02,2.03-.2,2.53-.64.5-.44.75-1.06.76-1.86,0-.58-.14-1.08-.44-1.49-.28-.4-.69-.69-1.16-.82-.31-.08-.88-.13-1.71-.13h-3.55s-.02,4.95-.02,4.95Zm11.39,7.32l.05-13.89h1.84s-.05,13.9-.05,13.9h-1.84Z"/><path class="cls-3" d="m173.86,46.1l-14.68-.05c-.91-.02-1.64-.78-1.62-1.69.02-.89.74-1.6,1.63-1.62l14.68.05c7.37.02,13.38-5.95,13.41-13.32.02-6.73-4.99-12.45-11.65-13.3l-1.18-.15-.23-1.16c-1.35-6.67-7.28-11.53-14.1-11.55-7.96-.03-14.45,6.43-14.48,14.38,0,.16,0,.33,0,.54l.06,1.9-1.89-.2c-.4-.04-.8-.06-1.19-.07-6.29-.02-11.43,5.08-11.45,11.38s5.08,11.43,11.38,11.45h3.98c.91.03,1.64.79,1.62,1.7-.02.89-.74,1.6-1.63,1.62h-3.98c-8.12-.04-14.69-6.66-14.67-14.78.03-8.03,6.51-14.55,14.5-14.67.65-9.77,9.1-17.17,18.88-16.52,3.72.25,7.27,1.66,10.14,4.04,2.81,2.33,4.83,5.48,5.8,9,7.74,1.54,13.42,8.4,13.39,16.4-.03,9.21-7.52,16.64-16.72,16.61Z"/><path class="cls-3" d="m162.93,51.53c-.41,0-.81-.16-1.12-.44l-7.19-6.64,6.85-7.09c.65-.64,1.7-.64,2.34.01.62.63.64,1.63.04,2.28l-4.5,4.66,4.7,4.34c.67.62.71,1.67.09,2.34-.31.34-.76.53-1.22.53h0Z"/></g><g id="Page-1"><g id="add"><path id="Combined-Shape" class="cls-2" d="m40.1,1.22l20.84,12-.08,23.87-20.92,11.87-20.84-12,.02-5.97,6.03.02v2.52s14.82,8.54,14.82,8.54l14.88-8.44.06-16.97-14.83-8.54-14.88,8.44v2.52s-6.03-.02-6.03-.02l.02-5.97L40.1,1.22ZM11.1,13.93l4.21,4.23-3.87,3.84,31.58.1-.02,5.97-31.58-.1,3.84,3.87-4.23,4.21L0,24.95l11.1-11.02Z"/></g></g><path class="cls-1" d="m81.12.05l30.42.1c3.44.01,6.23,2.74,6.22,6.1l-.1,31.59c0,1.1-.64,2.61-1.42,3.41l-5.65,5.67c-.78.79-2.3,1.42-3.42,1.42l-25.87-.08c-3.44-.01-6.23-2.75-6.22-6.1l.12-36.21c.01-3.27,2.66-5.89,5.92-5.88Zm27.06,44.77l5.89-5.92c.18-.18.36-.63.36-.92l.1-31.75c-.02-1.64-1.37-2.95-3-2.92l-29.9-.1c-1.76-.02-3.19,1.4-3.21,3.15,0,0,0,.01,0,.02l-.12,35.77c0,1.61,1.34,2.93,3,2.93l25.99.08c.33-.02.64-.14.88-.36h0Zm-.39-11.04l6.69.1c.89,0,1.61.71,1.61,1.59-.01.88-.73,1.59-1.61,1.57,0,0,0,0,0,0l-6.69-.1c-.4,0-.71.29-.71.67l-.02,7.61c-.01.88-.73,1.59-1.61,1.57,0,0,0,0,0,0-.88,0-1.6-.7-1.61-1.58,0,0,0,0,0,0l.02-7.61c0-2.12,1.77-3.82,3.94-3.82Zm-17.26-6.95c.52.53.51,1.37-.02,1.89-.25.25-.59.39-.94.38-.35,0-.7-.14-.95-.39l-6.22-6.19c-.52-.52-.52-1.37,0-1.89,0,0,0,0,0,0l6.26-6.15c.52-.51,1.38-.51,1.9,0,.52.52.52,1.34,0,1.9l-5.29,5.2,5.26,5.23h0Zm11.8-10.4c-.52-.52-.52-1.37,0-1.89,0,0,0,0,0,0,.52-.51,1.38-.51,1.91,0l6.22,6.19c.52.52.52,1.37,0,1.89,0,0,0,0,0,0l-6.26,6.15c-.26.25-.6.39-.95.38-.74,0-1.34-.6-1.34-1.34,0-.36.14-.7.39-.95l5.3-5.2-5.26-5.24h0Zm-2.49-4c.69.25,1.03,1.01.81,1.72l-5.86,15.85c-.26.69-1.03,1.05-1.73.8-.69-.23-1.07-.99-.83-1.68,0-.02.01-.03.02-.04l5.86-15.85c.26-.69,1.03-1.05,1.73-.8h0Z"/></svg>